<?xml version="1.0" encoding="UTF-8"?><svg xmlns="http://www.w3.org/2000/svg" viewBox="0 0 207.16 219.06"><defs><style>.cls-1{fill:#ffce88;}.cls-1,.cls-2,.cls-3,.cls-4,.cls-5,.cls-6,.cls-7,.cls-8,.cls-9,.cls-10,.cls-11,.cls-12{stroke-width:0px;}.cls-2{fill:#af6822;}.cls-13{isolation:isolate;}.cls-3{fill:#b82727;}.cls-4{fill:#703f12;}.cls-5{fill:#7b8c3b;}.cls-6{fill:#5d6d23;}.cls-7{fill:#dc4545;}.cls-8{fill:#ffba5f;}.cls-9{fill:#fff;mix-blend-mode:soft-light;opacity:.5;}.cls-10{fill:#47270c;}.cls-11{fill:#e2a050;}.cls-12{fill:#343a12;}</style></defs><g class="cls-13"><g id="TEXTS"><path class="cls-4" d="m44.09,61.5l1.96,10.49c21.56-8.69,64.61-10.75,93.38-2.27l1.71-9.27c-12-7.27-67.54-13.18-97.05,1.05Z"/><path class="cls-6" d="m125.1,81.2c.34-1.06.33-2.24-.06-3.28-1.24.94-2.02,2.18-2.53,3.61-.79-1.17-1.78-2.21-2.92-3.03-.53.55-.93,1.2-1.27,1.88,1.17.54,2.24,1.28,3.15,2.18-1.57,0-3.14.59-4.3,1.65.69.29,1.4.51,2.13.68-.87.71-1.55,1.55-2.05,2.56,1.21.19,2.42-.15,3.44-.83s1.85-1.61,2.66-2.54c2.29-.3,4.3-1.76,5.34-3.81-1.25,0-2.51.33-3.59.94Z"/><path class="cls-2" d="m117.05,92.35c.16,3.93,3.11,7.58,6.92,8.56,1.45.37,2.96.39,4.45.53,1.49.15,3.01.46,4.23,1.32.51.36,1.04.85,1.67.79.67-.06,1.12-.73,1.25-1.39.13-.66.02-1.34.08-2,.21-2.36,2.35-4.05,3.3-6.23.57-1.3.7-2.76.53-4.17-.43-3.55-2.91-6.78-6.23-8.13-1.8-.73-3.82-.89-5.72-.52-1.88.36-3.52,1.38-5.07,2.46-1.67,1.17-3.21,2.14-4.24,3.99-.8,1.45-1.24,3.11-1.17,4.77Z"/><path class="cls-9" d="m120.04,95.13c.41.66.95,1.28,1.68,1.56.73.28,1.66.12,2.1-.52.39-.56.33-1.31.25-1.99-.12-.99-.24-1.98-.35-2.98-.08-.71-.17-1.42-.36-2.11-.12-.44-.3-.89-.66-1.17-.58-.46-1.45-.33-2.05.09-2.31,1.62-1.9,4.99-.6,7.12Z"/><path class="cls-3" d="m106.34,102.28c-2.44,2.06-4.07,4.99-4.82,8.09-.98,4.03-.41,8.65,2.4,11.71,1.26,1.37,2.9,2.37,4.65,2.99,3.52,1.25,7.54,1.01,10.88-.65,6.68-3.33,9.62-11.92,6.19-18.58-1.76-3.43-5.02-5.9-8.85-6.47-3.7-.55-7.58.51-10.45,2.92Z"/><path class="cls-7" d="m107.27,103.51c-2.15,1.81-3.58,4.39-4.25,7.12-.86,3.55-.36,7.61,2.11,10.3,1.11,1.21,2.55,2.08,4.09,2.63,3.09,1.1,6.64.89,9.58-.57,5.88-2.93,8.47-10.49,5.45-16.35-1.55-3.02-4.41-5.19-7.79-5.69-3.25-.48-6.67.45-9.19,2.57Z"/><path class="cls-3" d="m107.12,105.63c-1.07,1.28-1.74,2.85-2.19,4.45-.71,2.59-.83,5.49.51,7.82.46.81,1.13,1.55,2.01,1.86,1.29.46,2.79-.15,3.63-1.22.85-1.07,1.12-2.5,1.02-3.86-.08-1.17-.4-2.36-.11-3.5.38-1.49,1.75-2.58,2.09-4.07.21-.91-.02-1.92-.6-2.65-.76-.97-1.98-1.43-3.15-1.05-1.26.4-2.37,1.21-3.22,2.22Z"/><path class="cls-3" d="m121.6,105.99c.78.96,1.21,2.17,1.44,3.39.57,3.04-.06,6.28-1.73,8.89-.43.67-.93,1.3-1.55,1.78s-1.39.81-2.19.82c-1.35.01-2.65-1.02-2.93-2.35-.3-1.39.42-2.79,1.17-4,.75-1.22,1.58-2.5,1.51-3.93-.04-.85-.39-1.65-.68-2.46-.29-.81-.5-1.69-.26-2.51.75-2.51,4.13-.96,5.21.37Z"/><path class="cls-10" d="m117.33,118.13c.3.23.44.56.3.75-.14.19-.5.16-.8-.07-.3-.23-.44-.56-.3-.75.14-.19.5-.16.8.07Z"/><path class="cls-10" d="m121.19,109.1c.33-.19.69-.18.81.02.12.2-.06.52-.38.71-.33.19-.69.18-.81-.02s.06-.52.38-.71Z"/><path class="cls-10" d="m108.36,107.9c.33-.19.69-.18.81.02.12.2-.06.52-.38.71-.33.19-.69.18-.81-.02-.12-.2.06-.52.38-.71Z"/><path class="cls-10" d="m109.47,112.72c.38-.05.71.1.74.33.03.23-.25.46-.63.51-.38.05-.71-.1-.74-.33-.03-.23.25-.46.63-.51Z"/><path class="cls-10" d="m120.49,115.96c.38.03.67.24.65.47-.02.23-.34.4-.72.37-.38-.03-.67-.24-.65-.47.02-.23.34-.4.72-.37Z"/><path class="cls-10" d="m118.27,108.1c.23-.3.56-.44.75-.3.19.14.16.5-.07.8-.23.3-.56.44-.75.3-.19-.14-.16-.5.07-.8Z"/><path class="cls-10" d="m106.16,111.2c.36.11.6.38.54.6-.07.22-.42.32-.78.21-.36-.11-.6-.38-.54-.6.07-.22.42-.32.78-.21Z"/><path class="cls-10" d="m109.04,117.25c.31-.22.67-.25.8-.06s0,.52-.31.75c-.31.22-.67.25-.8.06-.14-.19,0-.52.31-.75Z"/><path class="cls-10" d="m117.72,113.49c.34-.16.7-.12.8.09.1.21-.1.51-.45.67-.34.16-.7.12-.8-.09s.1-.51.45-.67Z"/><path class="cls-10" d="m121.68,112.83c.28.25.39.6.23.77-.15.17-.51.11-.79-.14-.28-.25-.39-.6-.23-.77.15-.17.51-.11.79.14Z"/><path class="cls-10" d="m111.41,105.08c.28.25.39.6.23.77-.15.17-.51.11-.79-.14-.28-.25-.39-.6-.23-.77.15-.17.51-.11.79.14Z"/><path class="cls-10" d="m106.04,115.52c.34-.16.7-.12.8.09.1.21-.1.51-.45.67s-.7.12-.8-.09c-.1-.21.1-.51.45-.67Z"/><path class="cls-9" d="m105.96,105.86c-.59.73-1.09,1.6-1.09,2.54,0,.94.64,1.93,1.57,2.05.83.11,1.59-.45,2.19-1.04.72-.7,1.38-1.49,2.27-1.94.79-.4,1.7-.49,2.53-.78s1.68-.86,1.84-1.73c.11-.57-.11-1.18-.51-1.61-1.82-1.97-5.36-.38-7.12.91-.63.46-1.2,1-1.69,1.6Z"/><path class="cls-3" d="m82.36,60.64c2.81,1.61,6.17,2.14,9.39,1.78,4.18-.47,8.38-2.62,10.32-6.36.87-1.68,1.25-3.59,1.23-5.47-.03-3.79-1.66-7.54-4.41-10.14-5.5-5.21-14.71-5.02-19.87.57-2.65,2.87-3.87,6.83-3.08,10.69.76,3.71,3.12,7.05,6.42,8.94Z"/><path class="cls-7" d="m83.21,59.32c2.47,1.42,5.43,1.88,8.26,1.57,3.68-.41,7.38-2.31,9.08-5.6.77-1.48,1.1-3.16,1.08-4.82-.03-3.33-1.46-6.63-3.88-8.93-4.84-4.59-12.95-4.41-17.48.5-2.33,2.53-3.41,6.01-2.71,9.41.67,3.27,2.75,6.2,5.65,7.87Z"/><path class="cls-3" d="m85.28,58.72c1.59.57,3.32.67,5.01.53,2.71-.22,5.52-1.12,7.28-3.21.61-.72,1.08-1.61,1.07-2.56-.01-1.38-1.11-2.6-2.42-3.04-1.31-.44-2.77-.19-4.04.37-1.09.48-2.11,1.21-3.3,1.32-1.55.15-3.07-.77-4.61-.57-.94.12-1.82.69-2.32,1.49-.66,1.06-.67,2.38.09,3.37.82,1.06,1.98,1.84,3.24,2.29Z"/><path class="cls-3" d="m80.58,44.8c.64-1.08,1.65-1.91,2.73-2.55,2.7-1.6,6.01-2.13,9.07-1.45.78.17,1.56.43,2.24.86.68.43,1.26,1.05,1.54,1.8.48,1.29-.05,2.88-1.22,3.61-1.23.77-2.8.57-4.22.28-1.42-.29-2.94-.63-4.27-.07-.8.33-1.44.95-2.11,1.5-.67.55-1.43,1.07-2.3,1.12-2.65.16-2.35-3.6-1.46-5.1Z"/><path class="cls-10" d="m93.64,44.65c.11-.37.38-.61.61-.55.23.07.32.42.21.79-.11.37-.38.61-.61.55s-.32-.42-.21-.79Z"/><path class="cls-10" d="m83.69,44.11c-.3-.25-.41-.59-.26-.78.15-.18.51-.13.81.12.3.25.41.59.26.78-.15.18-.51.13-.81-.12Z"/><path class="cls-10" d="m87.02,56.75c-.3-.25-.41-.59-.26-.78.15-.18.51-.13.81.12.3.25.41.59.26.78-.15.18-.51.13-.81-.12Z"/><path class="cls-10" d="m91.23,54.01c-.18-.34-.15-.71.06-.82.21-.11.52.08.7.42.18.34.15.71-.06.82-.21.11-.52-.08-.7-.42Z"/><path class="cls-10" d="m90.47,42.38c-.11-.37,0-.72.22-.79.23-.06.5.18.6.55.11.37,0,.72-.22.79-.23.06-.5-.18-.6-.55Z"/><path class="cls-10" d="m83.76,47.24c-.37-.11-.61-.38-.55-.61.07-.23.42-.32.79-.21.37.11.61.38.55.61s-.42.32-.79.21Z"/><path class="cls-10" d="m90.92,57.7c-.02-.38.15-.71.39-.72s.45.29.47.67c.02.38-.15.71-.39.72-.24.01-.45-.29-.47-.67Z"/><path class="cls-10" d="m95.69,52.85c-.32-.21-.47-.55-.34-.74s.5-.18.82.03c.32.21.47.55.34.74-.13.2-.5.18-.82-.03Z"/><path class="cls-10" d="m89.08,45.88c-.27-.27-.36-.63-.19-.8.17-.17.52-.08.79.19.27.27.36.63.19.8-.17.17-.52.08-.79-.19Z"/><path class="cls-10" d="m87.07,42.34c.14-.36.43-.58.65-.49.22.09.28.45.14.81-.14.36-.43.58-.65.49-.22-.09-.28-.45-.14-.81Z"/><path class="cls-10" d="m83.27,54.83c.14-.36.43-.58.65-.49.22.09.28.45.14.81-.14.36-.43.58-.65.49-.22-.09-.28-.45-.14-.81Z"/><path class="cls-10" d="m95.08,56.31c-.27-.27-.36-.63-.19-.8s.52-.08.79.19.36.63.19.8-.52.08-.79-.19Z"/><path class="cls-9" d="m85.91,59.75c.9.31,1.9.48,2.8.15.9-.33,1.61-1.28,1.4-2.21-.19-.83-.99-1.36-1.75-1.73-.92-.44-1.9-.79-2.64-1.49-.65-.61-1.06-1.44-1.62-2.14s-1.41-1.3-2.29-1.15c-.58.1-1.08.52-1.35,1.04-1.25,2.43,1.51,5.24,3.35,6.47.66.44,1.37.8,2.11,1.05Z"/><path class="cls-7" d="m69.69,66.45c-2.8.1-5.51,1.42-7.39,3.47-4.04,1.11-7.62,4.17-8.71,8.21-1.17,4.32.71,9.18,4.23,11.95,3.52,2.76,8.42,3.49,12.74,2.3,4.07-1.12,7.7-3.91,9.6-7.68,1.9-3.77,1.95-8.48-.08-12.18-2.03-3.7-6.17-6.21-10.39-6.07Z"/><path class="cls-6" d="m68.51,69.85c-1.27-.71-2.78-.98-4.22-.74.09-1.24.69-2.44,1.66-3.22-1.11.35-2.22.77-3.16,1.45-.65.46-1.22,1.05-1.62,1.72-.55-1.36-1.48-2.54-2.4-3.69-.92.45-1.51,1.44-1.53,2.46,1.27.26,2.45.91,3.36,1.82-1.76.37-3.39,1.39-4.45,2.85.91-.57,1.89-.85,2.95-.96-1.42,1.43-2,3.63-1.48,5.58,1.28-1.34,2.3-2.86,3.13-4.51,1.4.63,2.91.96,4.45.98-.49-.84-1.09-1.6-1.75-2.3,1.77-.06,3.52-.54,5.06-1.42Z"/><path class="cls-9" d="m56.23,82.54c.38,2.37,1.31,4.72,2.99,6.44.56.58,1.22,1.08,1.99,1.31.77.23,1.67.14,2.28-.38.58-.49.83-1.29.8-2.05-.02-.76-.28-1.49-.57-2.19s-.62-1.39-.78-2.13c-.26-1.16-.12-2.37-.3-3.55-.1-.66-.31-1.32-.74-1.84-.73-.89-2.03-1.21-3.13-.88-1.61.48-2.61,2.04-2.66,3.67-.02.54.04,1.08.13,1.62Z"/><path class="cls-6" d="m104.29,67.09c-12.02-6.08-43.49,24.77-19.48,37.89,24.01,13.12,31.92-31.6,19.48-37.89Z"/><path class="cls-1" d="m103.5,68.69c-11.02-5.57-39.84,22.69-17.85,34.71,21.99,12.02,29.24-28.94,17.85-34.71Z"/><path class="cls-10" d="m99.48,90.1c.18-1.77.01-3.64-.9-5.22-2.15-3.73-7.11-2.69-9.81-.53-1.46,1.17-2.58,2.7-3.53,4.3-1.14,1.92-2.08,4.04-2.11,6.29-.04,2.26.98,4.67,2.99,5.88,1.49.89,3.36,1.02,4.99.57,1.64-.45,3.06-1.43,4.24-2.6,2.33-2.31,3.81-5.41,4.14-8.69Z"/><path class="cls-9" d="m87.54,76.39c-.74.82-1.43,1.73-1.81,2.77-.38,1.04-.44,2.24.04,3.24s1.57,1.73,2.67,1.63c.79-.08,1.48-.55,2.13-1,1.54-1.08,3.08-2.16,4.62-3.24,1.49-1.04,2.99-2.1,4.29-3.37.76-.74,1.47-1.62,1.57-2.68.1-1.13-.59-2.26-1.59-2.8-1.99-1.07-4.49.28-6.3,1.19-2.12,1.06-4.04,2.51-5.62,4.27Z"/><path class="cls-2" d="m49.02,101.21c-.2-1.37.19-2.84,1.07-4.02s2.22-2.04,3.66-2.36c.47-1.79,1.88-3.41,3.66-4.18,1.78-.77,3.89-.68,5.46.24.03,1.89-.86,3.76-1.95,5.42-.97,1.46-2.13,2.86-3.64,3.81-2.4,1.51-5.59,1.65-8.25,1.09Z"/><path class="cls-6" d="m54.82,92.94c-.57-1.46-1.56-2.74-2.86-3.66-.95.55-1.51,1.6-1.49,2.62,1.17.36,2.2,1.03,2.99,1.91-.58.75-1.11,1.54-1.51,2.38-.52,1.09-.83,2.29-.76,3.45l.07.45c.88-.1,1.7-.5,2.48-.95,2.81-1.59,5.22-3.74,7.16-6.26-1.96-.42-4.05-.38-6.08.06Z"/><path class="cls-11" d="m47.9,101.51c-1.56,2.07-1.94,4.73-1.52,7.12.43,2.39,1.59,4.56,2.89,6.59,3.42,5.31,8.09,10.07,14.23,12.32,1.03.38,2.11.68,3.24.7,1.13.02,2.32-.27,3.24-.98,1-.77,1.57-1.97,1.77-3.15s.04-2.37-.17-3.52c-.94-4.97-3.15-9.6-6.26-13.54-1.56-1.97-3.34-3.76-5.31-5.35-1.41-1.14-3.35-3.04-5.35-3.15-2.54-.14-5.2.87-6.77,2.96Z"/><path class="cls-11" d="m64.82,89.01c2.52-.68,5.19-.08,7.3,1.17,2.11,1.25,3.75,3.1,5.2,5.03,3.8,5.05,6.63,11.06,6.54,17.51-.01,1.08-.11,2.19-.5,3.23s-1.1,2.03-2.09,2.62c-1.09.64-2.43.74-3.62.49-1.19-.25-2.26-.82-3.27-1.43-4.37-2.65-7.97-6.35-10.58-10.63-1.3-2.14-2.36-4.42-3.16-6.8-.57-1.7-1.68-4.17-1.06-6.04.78-2.38,2.7-4.46,5.24-5.15Z"/><path class="cls-8" d="m53.06,102.38c.33,1.62,1.03,3.15,1.8,4.6,3.28,6.16,7.67,11.92,13.8,15.55,1.17.69,2.43,1.31,3.83,1.47s2.97-.22,3.97-1.26c1.46-1.5,1.29-3.78.79-5.65-1.17-4.35-3.59-8.21-6.09-11.93-1.57-2.34-3.25-4.68-5.15-6.78-1.92-2.12-5.17-5.54-8.58-4.21-1.34.52-2.7,1.58-3.57,2.71-1.1,1.43-1.13,3.51-.87,5.12.02.13.05.26.07.39Z"/><path class="cls-9" d="m52.99,114.46c.5.65,1.07,1.29,1.84,1.63.77.35,1.79.34,2.49-.22.56-.44.82-1.16.82-1.83,0-.67-.23-1.3-.51-1.9s-.59-1.18-.79-1.81c-.4-1.33-.22-2.79-.35-4.19-.09-.9-.31-1.79-.77-2.56-.46-.77-1.17-1.4-2.05-1.69-.88-.29-1.94-.21-2.76.31-1.58.99-1.44,2.95-1.22,4.42.27,1.82.83,3.58,1.65,5.21.46.92,1.01,1.8,1.64,2.62Z"/><path class="cls-12" d="m137.18,59c-4.94,3.16-9.89,6.33-14.51,9.95-4.62,3.62-8.9,7.72-12.29,12.51l2.37,1.2c8.87-7.07,17.11-15.01,24.44-23.67Z"/><path class="cls-6" d="m125.78,54.3c-6.29,8.65-9.32,19.4-15.69,27.99l3.16.33c7.02-7.8,11.48-17.87,12.53-28.32Z"/><path class="cls-12" d="m113.74,79.8c1.13-2.97,1.93-6.07,2.38-9.22-1.76,4.09-3.93,8.01-6.39,11.72l1.86,1.14c1.04-.97,1.64-2.32,2.14-3.65Z"/><path class="cls-8" d="m109.13,81.87c-3.68,3.57-8.01,6.47-12.72,8.51-.85.37-1.73.72-2.48,1.27-.75.55-1.37,1.35-1.48,2.27-.14,1.19.61,2.37,1.67,2.94,1.05.57,2.33.6,3.5.32,1.58-.38,2.97-1.28,4.29-2.23,5.16-3.73,9.6-8.46,13.01-13.84-1.3.61-2.6,1.12-3.97,1.52.38-1.2.76-2.35,1.02-3.58-1,.96-1.84,1.85-2.84,2.82Z"/><path class="cls-6" d="m60.96,61.8c-1.16,1.22-3.03,1.71-4.63,1.21-1.61-.49-2.88-1.94-3.16-3.6-.84,0-1.68,0-2.51-.16s-1.63-.5-2.22-1.1c-.59-.59-.94-1.47-.77-2.29.18-.88.92-1.58,1.77-1.86.85-.28,1.79-.19,2.65.09.85.28,1.64.73,2.42,1.18.8-.81,2.09-1.07,3.17-.73,1.09.34,1.98,1.13,2.68,2.03.58.75,1.04,1.61,1.2,2.54.16.93.05,2.02-.6,2.7Z"/><path class="cls-12" d="m55.74,55.47c-.12-.24-.47-.02-.35.22.44.87.97,1.69,1.59,2.44-1.24-.54-2.52-1-3.83-1.37-1.11-.32-2.24-.58-3.38-.77-.26-.04-.35.36-.09.4,3.38.58,6.66,1.72,9.67,3.35-1.06.02-2.11.21-3.1.56-.25.09-.13.48.12.39,1.2-.43,2.47-.61,3.74-.53.3.18.6.35.9.54.98.62,1.93,1.29,2.84,2.01.2.16.49-.13.28-.3-1.93-1.54-4.05-2.84-6.28-3.89,0-.02-.02-.03-.03-.05-.83-.9-1.53-1.91-2.08-3Z"/><path class="cls-6" d="m88.71,106.31c-.62,2.45.26,5.21,2.17,6.86,1.91,1.65,4.78,2.1,7.11,1.13.67,1.07,1.35,2.14,2.22,3.06.87.91,1.95,1.67,3.18,1.95s2.62.02,3.53-.85c.98-.93,1.27-2.44.95-3.75-.33-1.31-1.2-2.43-2.23-3.3-1.04-.86-2.24-1.5-3.44-2.13.38-1.67-.31-3.51-1.61-4.62-1.3-1.11-3.02-1.62-4.73-1.78-1.41-.13-2.87-.03-4.19.51-1.31.54-2.61,1.55-2.96,2.92Z"/><path class="cls-12" d="m100.94,107.89c.39-.04.4.58,0,.62-1.46.14-2.93.12-4.38-.06,1.68,1.15,3.29,2.41,4.81,3.76,1.3,1.16,2.53,2.39,3.69,3.69.26.29-.17.73-.44.43-3.45-3.84-7.52-7.09-12.02-9.61.82,1.36,1.43,2.85,1.77,4.4.09.39-.51.55-.59.16-.41-1.87-1.2-3.62-2.31-5.18-.47-.24-.93-.48-1.41-.71-1.57-.76-3.18-1.43-4.83-2-.37-.13-.22-.73.15-.6,3.5,1.23,6.85,2.87,9.97,4.87.03,0,.06,0,.09,0,1.81.34,3.65.41,5.48.23Z"/><path class="cls-5" d="m112.14,67.33c1.62.44,3.47-.11,4.59-1.37,1.12-1.26,1.45-3.16.82-4.72.72-.44,1.44-.87,2.06-1.44s1.13-1.28,1.33-2.09c.2-.81.04-1.74-.53-2.36-.61-.66-1.61-.87-2.48-.67-.87.2-1.63.77-2.22,1.45-.59.68-1.02,1.48-1.45,2.26-1.1-.27-2.34.17-3.09,1.02-.75.85-1.11,1.99-1.23,3.13-.1.94-.05,1.91.29,2.79.35.88,1,1.75,1.91,2Z"/><path class="cls-12" d="m113.32,59.21c-.02-.26.39-.26.41,0,.08.97.05,1.95-.09,2.91.78-1.11,1.64-2.16,2.56-3.16.78-.85,1.62-1.66,2.49-2.42.2-.17.48.12.28.3-2.59,2.25-4.8,4.93-6.52,7.89.91-.53,1.91-.92,2.95-1.13.26-.05.36.34.1.4-1.25.26-2.42.76-3.47,1.48-.17.31-.33.62-.49.93-.52,1.04-.98,2.1-1.38,3.19-.09.25-.49.14-.39-.11.85-2.32,1.98-4.53,3.35-6.58,0-.02,0-.04,0-.06.24-1.2.31-2.42.21-3.64Z"/><path class="cls-5" d="m53.25,105.15c.66,1.98.1,4.31-1.38,5.79-1.48,1.47-3.81,2.02-5.79,1.35-.49.92-.98,1.85-1.64,2.65s-1.5,1.49-2.5,1.8c-1,.3-2.16.17-2.96-.49-.86-.71-1.19-1.93-1-3.03.19-1.1.84-2.08,1.64-2.85.8-.78,1.76-1.37,2.7-1.96-.42-1.35.04-2.91,1.05-3.91,1.01-.99,2.4-1.52,3.79-1.75,1.16-.19,2.37-.2,3.48.17s2.24,1.12,2.61,2.23Z"/><path class="cls-12" d="m43.26,107.19c-.33,0-.29.5.03.51,1.21.03,2.42-.08,3.61-.31-1.32,1.05-2.57,2.18-3.74,3.39-1,1.03-1.94,2.12-2.82,3.26-.2.26.19.59.39.33,2.61-3.37,5.78-6.3,9.33-8.65-.6,1.17-1,2.43-1.19,3.73-.05.32.45.42.5.1.23-1.56.77-3.06,1.6-4.41.37-.23.74-.46,1.12-.67,1.25-.72,2.54-1.37,3.86-1.94.3-.13.14-.61-.16-.48-2.81,1.22-5.48,2.78-7.93,4.61-.02,0-.05,0-.08,0-1.47.39-2.98.56-4.5.52Z"/><path class="cls-6" d="m116.21,33.19c-.74-.16-1.59.2-2.01.86-.12-.73-.44-1.45-1.02-1.87-.19-.14-.42-.25-.66-.22-.37.03-.67.36-.79.72-.12.36-.09.73-.06,1.1-.56-.58-1.48-.79-2.27-.52-.79.27-1.43,1.02-1.56,1.84-.14.82.22,1.69.9,2.14-.55.07-1.16.37-1.27.92-.06.33.09.66.31.89.23.23.52.38.81.53-.4.18-.64.64-.64,1.07,0,.43.18.83.43,1.17.38.51.97.9,1.62.86.65-.03,1.3-.62,1.26-1.26.24.17.6.18.87.03.27-.16.45-.47.44-.78.63.42,1.57.33,2.14-.22.4-.38.59-.95.55-1.48.46,0,.95-.22,1.22-.62.35-.51.32-1.24-.08-1.68.71-.32,1.2-1.11,1.16-1.87s-.61-1.44-1.35-1.61Z"/><path class="cls-5" d="m111.84,39.82c.57.33,1.14.67,1.64,1.08.51.42.95.92,1.21,1.53.15.36.24.75.39,1.11.15.36.39.71.74.87.33.15.71.13,1.05,0s.63-.35.9-.58c.41-.35.8-.75,1.04-1.23.24-.48.32-1.07.12-1.57-.18-.43-.54-.76-.92-1.04-.71-.52-1.51-.91-2.2-1.46-.69-.55-1.28-1.32-1.32-2.2-.29.1-.59.23-.85.38.12,1.16.48,2.28,1.08,3.28-.71-.56-1.54-.96-2.42-1.16-.23.27-.38.64-.47.99Z"/><path class="cls-9" d="m109.17,37.1c.12.13.25.26.41.33.16.07.36.08.51-.02.21-.14.26-.44.19-.69-.07-.25-.22-.46-.34-.68-.15-.3-.24-.64-.26-.98-.01-.2,0-.4-.07-.59-.06-.19-.21-.37-.41-.39-.39-.04-.74.47-.77.82-.04.49.05,1,.25,1.45.12.27.29.53.48.75Z"/><path class="cls-6" d="m139.86,48c-.12-1-.94-1.91-1.96-2.15.87-.46,1.63-1.18,1.91-2.1.09-.3.13-.63,0-.93-.2-.45-.75-.68-1.24-.68-.5,0-.96.21-1.41.41.49-.96.36-2.2-.33-3.08-.69-.88-1.9-1.35-3-1.17s-2.03,1.01-2.3,2.05c-.32-.66-.98-1.3-1.71-1.2-.44.06-.79.4-.98.78-.19.38-.25.82-.31,1.25-.4-.42-1.08-.52-1.62-.35-.55.18-.97.59-1.28,1.05-.47.7-.71,1.61-.38,2.41.32.8,1.34,1.37,2.13,1.03-.11.38.03.83.34,1.1.31.27.79.36,1.17.22-.26.97.27,2.11,1.21,2.6.65.34,1.45.34,2.1.05.19.59.69,1.09,1.31,1.26.79.22,1.7-.14,2.08-.83.71.76,1.92,1.03,2.86.65.94-.38,1.55-1.4,1.43-2.4Z"/><path class="cls-5" d="m129.61,45.39c-.17.86-.34,1.72-.65,2.54-.3.82-.75,1.6-1.4,2.19-.39.35-.83.63-1.22.97-.39.35-.72.8-.78,1.32-.05.48.15.95.46,1.32.3.37.71.64,1.12.88.62.37,1.29.68,2,.77.71.09,1.48-.06,2.03-.53.47-.41.73-1.01.91-1.61.34-1.12.48-2.3.88-3.4s1.1-2.18,2.19-2.61c-.25-.32-.54-.64-.84-.9-1.4.65-2.66,1.6-3.66,2.78.4-1.13.54-2.36.41-3.55-.44-.17-.97-.2-1.44-.16Z"/><path class="cls-9" d="m131.87,40.84c-.12.21-.22.43-.24.66-.02.24.06.49.25.64.27.21.67.13.95-.06.28-.19.48-.48.71-.72.32-.33.7-.58,1.12-.76.24-.1.5-.19.71-.35.21-.16.37-.43.31-.69-.11-.5-.92-.72-1.37-.61-.63.16-1.24.5-1.71.95-.29.27-.54.59-.74.94Z"/><path class="cls-6" d="m32.12,68.38c-1.02.26-1.84,1.25-1.95,2.33-.6-.83-1.45-1.52-2.44-1.68-.32-.05-.67-.04-.96.13-.44.27-.6.87-.52,1.38s.35.96.62,1.4c-1.06-.37-2.33-.06-3.14.78-.81.84-1.13,2.16-.78,3.26.34,1.11,1.33,1.95,2.45,2.09-.64.42-1.21,1.19-.99,1.93.13.45.52.76.95.9.42.14.88.14,1.33.14-.38.47-.39,1.19-.13,1.72.26.54.75.92,1.27,1.18.79.39,1.77.5,2.55.06.78-.45,1.23-1.58.77-2.35.41.06.85-.15,1.09-.51.24-.36.26-.86.06-1.24,1.04.13,2.15-.58,2.52-1.61.26-.72.14-1.55-.25-2.18.58-.28,1.03-.87,1.12-1.53.12-.85-.38-1.74-1.15-2.03.69-.84.8-2.13.27-3.05-.53-.92-1.67-1.4-2.68-1.14Z"/><path class="cls-5" d="m30.87,79.35c.91.06,1.82.11,2.71.31.89.2,1.76.55,2.46,1.13.42.35.77.77,1.18,1.13.41.35.93.64,1.47.62.5-.02.96-.29,1.3-.66s.56-.82.76-1.28c.29-.69.52-1.43.51-2.18,0-.75-.27-1.52-.84-2.02-.49-.43-1.15-.61-1.79-.71-1.21-.2-2.44-.18-3.64-.43-1.2-.25-2.41-.83-3.01-1.9-.29.3-.59.65-.82,1,.87,1.36,2.03,2.53,3.39,3.39-1.23-.26-2.51-.23-3.73.07-.12.48-.07,1.03.04,1.52Z"/><path class="cls-9" d="m25.86,77.65c.23.09.47.17.72.15.25-.01.5-.13.62-.35.18-.31.04-.71-.2-.97-.24-.26-.56-.43-.85-.64-.38-.28-.7-.65-.94-1.05-.14-.24-.26-.49-.46-.69s-.49-.32-.75-.22c-.51.19-.62,1.05-.44,1.5.25.63.69,1.21,1.22,1.64.32.26.69.48,1.07.63Z"/><path class="cls-11" d="m30.38,89.32c1.11,2.24,2.34,4.49,4.23,6.13,1.93,1.68,4.5,2.6,7.06,2.54,2.56-.06,5.08-1.11,6.92-2.88,1.76-1.69,2.88-3.96,3.48-6.32.6-2.36.72-4.82.7-7.26-.63-.25-1.24-.55-1.77-.98-.51,1.32-1.13,2.61-1.83,3.84-.86-.84-1.92-1.5-3.03-1.96l-2.29,2.39c-1.3-.92-2.6-1.85-3.91-2.77-.86,1.61-1.73,3.22-2.59,4.83-1.84-.71-3.68-1.42-5.52-2.13-.32,1.49-1.13,3.08-1.45,4.57Z"/><path class="cls-9" d="m36.53,93.83c.62.36,1.32.62,2.04.62.72,0,1.46-.26,1.94-.8.48-.54.64-1.37.32-2.01-.32-.62-1-.97-1.66-1.18-.67-.21-1.37-.33-1.96-.7-.4-.25-.73-.6-1.12-.88-.61-.45-1.36-.61-1.92,0-.42.45-.64,1.02-.46,1.62.4,1.33,1.66,2.64,2.83,3.32Z"/><path class="cls-11" d="m91.09,64.63c-1.47-.99-3.02-1.96-4.76-2.31-1.78-.36-3.69-.04-5.25.9-1.56.93-2.75,2.46-3.27,4.2-.5,1.66-.39,3.45.06,5.13s1.24,3.23,2.1,4.73c.48-.07.96-.09,1.44-.01-.14-1-.22-2.01-.21-3.02.83.22,1.71.26,2.56.15.19-.76.39-1.52.58-2.28,1.13.12,2.26.23,3.38.35-.03-1.3-.06-2.6-.08-3.89,1.39-.2,2.77-.41,4.16-.61-.32-1.03-.38-2.3-.7-3.33Z"/><path class="cls-9" d="m85.71,64c-.51,0-1.03.08-1.48.33-.45.25-.81.67-.92,1.17-.11.5.08,1.07.51,1.35.41.27.95.25,1.44.15.48-.1.97-.27,1.46-.25.34.01.66.12,1,.16.54.06,1.05-.1,1.19-.67.1-.43.04-.86-.28-1.17-.71-.68-1.95-1.05-2.91-1.06Z"/><path class="cls-6" d="m70.64,38.1c.67-.35,1.22-.92,1.52-1.62-1.04-.13-2.01.1-2.93.55.17-.94.18-1.91.02-2.85-.51.02-1.02.14-1.51.31.31.81.48,1.68.5,2.55-.76-.74-1.8-1.2-2.86-1.24.19.47.44.91.71,1.34-.76-.07-1.48.01-2.2.27.5.66,1.24,1.07,2.06,1.22.82.15,1.66.1,2.49.03,1.25.94,2.91,1.18,4.39.68-.61-.59-1.37-1.03-2.18-1.25Z"/><path class="cls-2" d="m61.47,39.69c-1.78,1.98-2.08,5.14-.7,7.42.53.86,1.25,1.59,1.9,2.36.65.78,1.24,1.65,1.42,2.64.08.42.1.9.43,1.17.35.29.89.18,1.26-.08.37-.26.64-.64.99-.93,1.22-1.05,3.05-.85,4.54-1.45.89-.36,1.65-1,2.23-1.77,1.47-1.93,1.8-4.66.83-6.88-.53-1.21-1.43-2.24-2.53-2.96-1.08-.71-2.36-1-3.62-1.2-1.36-.22-2.56-.48-3.94-.07-1.08.32-2.07.92-2.83,1.75Z"/><path class="cls-9" d="m61.6,42.45c-.12.51-.15,1.07.08,1.55.22.48.75.84,1.26.74.45-.09.78-.48,1.06-.85.41-.54.82-1.07,1.24-1.61.29-.38.59-.77.82-1.19.15-.27.27-.57.23-.88-.06-.49-.54-.85-1.04-.93-1.88-.31-3.28,1.52-3.66,3.16Z"/><path class="cls-5" d="m128.07,81.4c.44-.36.84-.8,1.05-1.34.31-.81.11-1.65-.24-2.44-.26-.01-.52.12-.71.3-.19.18-.36.44-.49.67.48.36.57,1.09.34,1.64-.24.55-.73.96-1.25,1.27-1.13.67-2.47.95-3.78.83-.36-.74-1.06-1.31-1.86-1.52l.3,3.65c.77-.33,1.41-1,1.64-1.81,1.74.34,3.63-.13,5-1.25Z"/><path class="cls-3" d="m120.44,86.13c1.26-1,2.09-2.62,1.86-4.21-.17-1.17-1.04-2.41-2.25-2.59-1.27-.19-2.35.12-3.59.3-1.41.2-2.83.3-4.25.27-1.76-.03-3.53-.24-5.18-.85-1.65-.61-3.17-1.64-4.18-3.07-.34-.48-.64-1.02-1.03-1.45-.44-.48-1.24-.26-1.39.37-.19.76-.06,1.65.16,2.43.91,3.24,3,6.13,5.79,8.02,2.79,1.89,6.25,2.76,9.6,2.41,1.6-.17,3.21-.62,4.47-1.62Z"/><path class="cls-9" d="m120.25,80.45c-.4-.13-.84-.09-1.26,0-.42.09-.82.22-1.25.25-.57.05-1.16-.08-1.72.07-.32.08-.64.29-.72.61-.08.33.13.67.41.85s.63.24.96.29c1.18.18,2.42.34,3.54-.09.41-.16.91-.53.88-1.03-.02-.43-.47-.83-.85-.95Z"/><path class="cls-5" d="m20.01,52.99c-.47-.29-.91-.67-1.17-1.16-.4-.74-.3-1.57-.06-2.37.25-.05.51.05.72.21.2.15.4.38.55.58-.42.41-.42,1.11-.12,1.62.29.5.81.83,1.35,1.06,1.16.5,2.48.62,3.72.35.26-.76.86-1.39,1.6-1.69l.15,3.54c-.78-.22-1.47-.79-1.79-1.54-1.63.54-3.5.31-4.95-.6Z"/><path class="cls-12" d="m27.89,56.6c-1.32-.81-2.32-2.26-2.29-3.81.02-1.14.7-2.44,1.84-2.75,1.2-.33,2.27-.17,3.48-.14,1.37.03,2.75-.06,4.11-.25,1.68-.24,3.36-.66,4.86-1.44,1.51-.78,2.85-1.95,3.65-3.45.27-.5.49-1.06.82-1.51.36-.51,1.16-.4,1.38.18.27.71.25,1.57.13,2.35-.49,3.22-2.15,6.25-4.59,8.39-2.45,2.15-5.66,3.4-8.92,3.46-1.55.03-3.15-.21-4.48-1.02Z"/><path class="cls-9" d="m27.4,51.14c.37-.17.8-.18,1.21-.15.41.03.82.11,1.23.09.56-.02,1.11-.22,1.66-.14.32.04.65.2.76.5.11.3-.05.66-.29.87s-.57.31-.88.39c-1.11.32-2.28.61-3.41.34-.41-.1-.93-.4-.97-.88-.03-.42.35-.85.71-1.02Z"/><path class="cls-5" d="m140.5,96.64c.14-.33.34-.65.62-.87.43-.33.97-.35,1.51-.28.05.16.02.33-.06.48-.08.15-.2.29-.32.41-.3-.23-.75-.15-1.05.09-.29.24-.45.61-.54.97-.2.8-.14,1.65.16,2.42.51.09.98.41,1.24.85l-2.25.46c.06-.52.36-1.02.8-1.3-.51-.99-.56-2.2-.12-3.23Z"/><path class="cls-12" d="m138.99,102.05c.38-.93,1.21-1.72,2.2-1.86.73-.1,1.63.2,1.95.9.33.73.34,1.43.45,2.21.12.88.32,1.75.58,2.6.33,1.05.76,2.08,1.42,2.97.65.89,1.54,1.62,2.58,1.98.35.12.73.21,1.05.37.36.18.37.7.02.9-.43.25-.98.32-1.49.33-2.11.01-4.21-.74-5.84-2.08s-2.75-3.28-3.12-5.35c-.18-.99-.18-2.04.2-2.97Z"/><path class="cls-9" d="m142.44,101.18c.15.22.2.49.22.76.02.27.01.53.07.79.07.35.25.68.26,1.04,0,.21-.06.44-.24.54-.18.1-.42.04-.58-.1-.16-.14-.25-.33-.34-.53-.32-.68-.62-1.4-.56-2.14.02-.27.16-.64.47-.71.26-.06.58.14.72.35Z"/><path class="cls-1" d="m45.77,120.8c18.23-6.5,92.51-1.11,92.51-1.11,0,0,3.78,33.77-2.41,49.31-40.07,10.15-87.7,1.27-87.7,1.27-6.53-20.45-2.41-49.46-2.41-49.46Z"/><path class="cls-9" d="m59.15,130.43c-4.62,2.53-8.23,7.09-9.04,12.3-.3,1.95-.12,4.19,1.32,5.53,1.39,1.3,3.6,1.37,5.35.65,1.76-.72,3.16-2.09,4.47-3.46,1.31-1.38,2.6-2.82,4.25-3.76,1.91-1.09,4.13-1.42,6.3-1.79,2.16-.36,4.39-.81,6.19-2.06,1.8-1.25,3.06-3.54,2.47-5.65-.37-1.32-1.4-2.37-2.59-3.06-2.59-1.5-5.91-1.46-8.82-1.34-3.44.14-6.88.98-9.91,2.64Z"/><path class="cls-4" d="m44.48,117.41c25.84-6.65,87.67-2.52,96.03-.72,1.35,4.94.12,9.85.12,9.85-33.9-3.65-96.68,1.08-96.68,1.08-.63-6.23.54-10.21.54-10.21Z"/><path class="cls-10" d="m128.3,120c-.36-20.35,12.84-59.54,12.84-59.54,5.82,3.17,7.01,6.82,7.01,6.82,0,0-12.01,37-12.01,53.59l-7.84-.87Z"/><path class="cls-10" d="m56.93,121.05c.36-20.35-12.84-59.54-12.84-59.54-5.82,3.17-7.01,6.82-7.01,6.82,0,0,12.01,37,12.01,53.59l7.84-.87Z"/></g></g></svg>