<?xml version="1.0" encoding="UTF-8"?><svg xmlns="http://www.w3.org/2000/svg" viewBox="0 0 207.16 219.06"><defs><style>.cls-1{fill:#ffce88;}.cls-1,.cls-2,.cls-3,.cls-4,.cls-5,.cls-6,.cls-7,.cls-8,.cls-9,.cls-10,.cls-11{stroke-width:0px;}.cls-12{isolation:isolate;}.cls-2{fill:#b82727;}.cls-3{fill:#7b8c3b;}.cls-4{fill:#5d6d23;}.cls-5,.cls-8{fill:#fff;}.cls-6{fill:#dc4545;}.cls-7{fill:#ffba5f;}.cls-8{mix-blend-mode:soft-light;opacity:.5;}.cls-9{fill:#47270c;}.cls-10{fill:#e2a050;}.cls-11{fill:#343a12;}</style></defs><g class="cls-12"><g id="TEXTS"><path class="cls-2" d="m101.6,73.9c.31.95.95,1.78,1.71,2.42t0,.01c.36.31.76.58,1.19.74.15.06.29.1.45.13.23.04.47.04.7.01-.4,1.53-1.21,2.96-2.24,4.16-1.49,1.73-3.5,3.08-5.72,3.59-2.62.61-5.45.01-7.63-1.55-2.27-1.62-3.54-4.26-3.54-7.03-.01-5.33,4.59-9.84,9.89-9.85-.1.26-.17.53-.19.82,0,.11-.02.21-.01.31,0,.75.31,1.51.91,1.95.73.55,1.74.53,2.65.41-.12.45.26.91.71,1.04.44.13.92.03,1.38-.07-.32.54-.46,1.17-.45,1.81,0,.37.07.75.19,1.1Z"/><path class="cls-6" d="m101.86,70.99c-.32.54-.46,1.17-.45,1.81,0,.37.07.75.19,1.1.31.95.95,1.78,1.71,2.42t0,.01c.36.31.76.58,1.19.74-.36,1.33-1.07,2.59-1.97,3.64-1.31,1.53-3.08,2.71-5.04,3.17-2.3.53-4.79,0-6.71-1.36-1.99-1.43-3.11-3.75-3.12-6.18-.01-4.64,3.94-8.56,8.54-8.67,0,.75.31,1.51.91,1.95.73.55,1.74.53,2.65.41-.12.45.26.91.71,1.04.44.13.92.03,1.38-.07Z"/><path class="cls-2" d="m101.6,73.9c.31.95.95,1.78,1.71,2.42t0,.01c-.25,1.53-1.12,2.95-2.18,4.1-.1.12-.22.23-.33.35-.73.74-1.57,1.37-2.52,1.78-.87.37-1.85.52-2.79.37-.87-.15-1.5-.84-1.67-1.71-.09-.48-.02-.99.19-1.43.08-.16.18-.32.29-.46.71-.85,1.94-1.1,2.66-1.93.56-.63.75-1.5,1.08-2.27.39-.9,1.03-1.73,1.92-2.14.45-.2.95-.28,1.43-.21,0,.37.07.75.19,1.1Z"/><path class="cls-2" d="m89.16,77.61c-.19-.87-.06-1.78.19-2.64.63-2.13,2.09-4,4.01-5.12.49-.29,1.02-.53,1.58-.63.56-.1,1.16-.06,1.66.19.87.44,1.36,1.52,1.11,2.46-.26.99-1.18,1.64-2.06,2.18-.87.53-1.83,1.09-2.25,2.02-.26.56-.29,1.19-.37,1.79-.08.61-.23,1.24-.65,1.69-1.3,1.36-2.95-.73-3.21-1.94Z"/><path class="cls-9" d="m95.86,71.24c-.12-.24-.1-.5.05-.58s.37.06.49.31.1.5-.05.58c-.15.07-.37-.06-.49-.31Z"/><path class="cls-9" d="m90.43,75.76c-.27.01-.5-.11-.51-.28,0-.17.21-.31.48-.33.27-.01.5.11.51.28,0,.17-.21.31-.48.33Z"/><path class="cls-9" d="m98.24,80.71c-.27.01-.5-.11-.51-.28,0-.17.21-.31.48-.33s.5.11.51.28c0,.17-.21.31-.48.33Z"/><path class="cls-9" d="m99.11,77.27c-.26-.09-.42-.29-.36-.45.06-.16.31-.21.57-.12.26.09.42.29.36.45-.06.16-.31.21-.57.12Z"/><path class="cls-9" d="m93.12,71.6c-.23-.14-.35-.37-.26-.51s.35-.14.58,0c.23.14.35.37.26.51-.09.14-.35.14-.58,0Z"/><path class="cls-9" d="m91.98,77.35c-.24.12-.5.1-.58-.05s.06-.37.31-.49c.24-.12.5-.1.58.05.07.15-.06.37-.31.49Z"/><path class="cls-9" d="m100.73,79.33c-.2-.19-.26-.44-.15-.56.12-.12.37-.07.57.12.2.19.26.44.15.56-.12.12-.37.07-.57-.12Z"/><path class="cls-9" d="m100.86,74.52c-.27.04-.51-.06-.53-.22-.03-.17.17-.33.44-.38.27-.04.51.06.53.22s-.17.33-.44.38Z"/><path class="cls-9" d="m94.08,74.08c-.27-.01-.49-.16-.48-.32s.23-.29.5-.28c.27.01.49.16.48.32s-.23.29-.5.28Z"/><path class="cls-9" d="m91.34,73.21c-.1-.25-.05-.51.1-.57.16-.06.36.1.46.35.1.25.05.51-.1.57s-.36-.1-.46-.35Z"/><path class="cls-9" d="m95.37,81.52c-.1-.25-.05-.51.1-.57.16-.06.36.1.46.35.1.25.05.51-.1.57s-.36-.1-.46-.35Z"/><path class="cls-9" d="m102.21,76.6c-.27-.01-.49-.16-.48-.32,0-.17.23-.29.5-.28.27.01.49.16.48.32,0,.17-.23.29-.5.28Z"/><path class="cls-8" d="m99.11,82.8c.62-.27,1.22-.67,1.53-1.27.31-.6.22-1.44-.34-1.82-.5-.34-1.17-.23-1.74-.05-.69.21-1.37.5-2.09.5-.64,0-1.24-.24-1.87-.33s-1.36,0-1.74.5c-.26.33-.31.79-.2,1.19.52,1.86,3.31,1.99,4.85,1.75.55-.09,1.09-.25,1.6-.47Z"/><path class="cls-2" d="m101.35,100.57c.53-.85.76-1.87.76-2.87t0-.01c0-.47-.04-.95-.19-1.39-.05-.15-.11-.29-.19-.43-.12-.2-.27-.39-.44-.54,1.43-.67,3.05-.97,4.63-.94,2.29.04,4.6.72,6.42,2.1,2.14,1.62,3.5,4.18,3.7,6.86.21,2.78-1.01,5.45-3.13,7.22-4.09,3.42-10.5,2.77-13.9-1.29.26-.09.51-.21.75-.38.09-.06.17-.12.25-.19.58-.48.96-1.2.92-1.95-.05-.92-.71-1.68-1.38-2.3.42-.2.53-.78.34-1.21-.18-.42-.57-.73-.94-1.01.62-.1,1.2-.4,1.67-.82.28-.24.53-.53.73-.85Z"/><path class="cls-6" d="m98.95,102.23c.62-.1,1.2-.4,1.67-.82.28-.24.53-.53.73-.85.53-.85.76-1.87.76-2.87t0-.01c0-.47-.04-.95-.19-1.39,1.26-.58,2.67-.84,4.05-.82,2.02.03,4.05.63,5.66,1.85,1.88,1.43,3.07,3.68,3.25,6.03.18,2.45-.89,4.79-2.75,6.35-3.56,2.98-9.1,2.45-12.13-1.01.58-.48.96-1.2.92-1.95-.05-.92-.71-1.68-1.38-2.3.42-.2.53-.78.34-1.21-.18-.42-.57-.73-.94-1.01Z"/><path class="cls-2" d="m101.35,100.57c.53-.85.76-1.87.76-2.87t0-.01c1.33-.79,2.98-1.03,4.55-.96.16,0,.32.02.48.03,1.03.09,2.06.32,2.98.79.85.43,1.59,1.09,2.07,1.9.45.77.32,1.69-.24,2.38-.31.38-.75.65-1.22.77-.18.04-.36.07-.54.07-1.1,0-2.08-.78-3.19-.81-.84-.03-1.63.39-2.43.63-.94.28-1.98.32-2.87-.1-.45-.22-.82-.55-1.08-.96.28-.24.53-.53.73-.85Z"/><path class="cls-2" d="m112.17,107.75c-.55.7-1.33,1.19-2.14,1.54-2.04.88-4.41.95-6.5.2-.53-.19-1.06-.44-1.49-.81-.44-.36-.79-.85-.92-1.4-.22-.95.3-2.01,1.18-2.42.93-.43,2.02-.15,2.99.19.97.33,2,.71,2.99.44.59-.16,1.1-.54,1.62-.86.52-.33,1.1-.62,1.71-.58,1.87.13,1.33,2.74.56,3.71Z"/><path class="cls-9" d="m102.99,106.68c-.11.25-.32.4-.48.33-.15-.07-.19-.32-.08-.57.11-.25.32-.4.48-.33.15.07.19.32.08.57Z"/><path class="cls-9" d="m109.93,107.96c.18.2.24.45.11.57-.12.11-.37.04-.56-.16-.18-.2-.24-.45-.11-.57.12-.11.37-.04.56.16Z"/><path class="cls-9" d="m108.73,98.78c.18.2.24.45.11.57s-.37.04-.56-.16-.24-.45-.11-.57c.12-.11.37-.04.56.16Z"/><path class="cls-9" d="m105.53,100.32c.09.26.04.51-.11.57-.16.06-.36-.1-.45-.36-.09-.26-.04-.51.11-.57.16-.06.36.1.45.36Z"/><path class="cls-9" d="m105.01,108.55c.04.27-.06.51-.23.53s-.33-.17-.37-.44c-.04-.27.06-.51.23-.53s.33.17.37.44Z"/><path class="cls-9" d="m110.16,105.75c.25.11.4.32.33.48-.07.15-.32.19-.57.08-.25-.11-.4-.32-.33-.48.07-.15.32-.19.57-.08Z"/><path class="cls-9" d="m106.08,97.76c-.02.27-.17.48-.34.47-.17-.01-.29-.24-.27-.51.02-.27.17-.48.34-.47.17.01.29.24.27.51Z"/><path class="cls-9" d="m102.3,100.74c.2.18.28.43.17.55-.11.13-.37.08-.57-.1-.2-.18-.28-.43-.17-.55.11-.13.37-.08.57.1Z"/><path class="cls-9" d="m106.3,106.22c.17.22.19.47.06.58s-.37,0-.54-.21c-.17-.22-.19-.47-.06-.58.13-.1.37,0,.54.21Z"/><path class="cls-9" d="m107.39,108.89c-.13.24-.36.37-.5.29-.15-.08-.16-.34-.03-.58s.36-.37.5-.29c.15.08.16.34.03.58Z"/><path class="cls-9" d="m111.19,100.47c-.13.24-.36.37-.5.29-.15-.08-.16-.34-.03-.58.13-.24.36-.37.5-.29.15.08.16.34.03.58Z"/><path class="cls-9" d="m103.03,98.36c.17.22.19.47.06.58-.13.1-.37,0-.54-.21-.17-.22-.19-.47-.06-.58.13-.1.37,0,.54.21Z"/><path class="cls-8" d="m109.78,96.78c-.6-.3-1.29-.51-1.95-.36-.66.15-1.25.75-1.19,1.42.06.6.57,1.04,1.07,1.37.6.39,1.26.73,1.72,1.28.4.49.61,1.11.94,1.65.33.54.87,1.04,1.5,1.02.42-.01.81-.27,1.05-.61,1.09-1.59-.59-3.82-1.76-4.84-.42-.37-.89-.68-1.39-.93Z"/><path class="cls-6" d="m72.74,63.59c.71.26,1.56.06,2.08-.48.21,1.19.54,2.38,1.2,3.39.66,1.01,1.7,1.82,2.89,1.99.96.14,1.95-.15,2.78-.64.21-.13.41-.26.62-.4.03.55.03,1.11-.02,1.66-.28,3.39-2.07,6.7-4.96,8.49-2.89,1.79-6.85,1.87-9.62-.09-2.6-1.83-3.85-5.18-3.6-8.35-.97-1.88-1.2-4.16-.54-6.18.55-1.68,1.68-3.14,3.12-4.19-.24.99,0,2.1.71,2.85,1.04,1.08,2.91,1.2,4.07.26.04.75.57,1.45,1.28,1.71Z"/><path class="cls-4" d="m65.68,64.69c-.84.73-1.42,1.73-1.63,2.82-.86-.39-1.56-1.13-1.87-2.03-.04.88-.03,1.78.21,2.63.16.58.43,1.14.81,1.6-1.11.04-2.2.39-3.26.75.08.77.64,1.45,1.36,1.74.52-.83,1.29-1.51,2.18-1.92-.2,1.35.11,2.78.87,3.92-.17-.79-.12-1.57.08-2.36.65,1.38,2.07,2.37,3.59,2.51-.62-1.26-1.44-2.38-2.4-3.41.81-.84,1.45-1.83,1.86-2.92-.72.13-1.43.36-2.1.65.42-1.28.53-2.65.3-3.98Z"/><path class="cls-8" d="m71.54,76.76c1.79.35,3.71.29,5.37-.46.56-.25,1.09-.59,1.46-1.08.36-.49.53-1.16.32-1.73-.2-.54-.71-.93-1.25-1.11-.55-.18-1.14-.19-1.71-.16-.58.02-1.16.08-1.73,0-.9-.11-1.73-.53-2.61-.71-.5-.1-1.03-.12-1.51.05-.82.29-1.39,1.13-1.45,2.01-.08,1.28.78,2.4,1.92,2.85.38.15.78.25,1.19.33Z"/><path class="cls-6" d="m83.76,98.98c.48.58,1.31.84,2.04.64-.42,1.13-.74,2.32-.68,3.53s.54,2.43,1.48,3.18c.76.6,1.76.85,2.72.85.25,0,.49-.01.74-.04-.25.49-.54.97-.86,1.42-1.95,2.78-5.17,4.73-8.57,4.81-3.4.09-6.85-1.85-8.25-4.95-1.31-2.9-.71-6.41,1.12-9.02.12-2.11,1.07-4.2,2.66-5.61,1.33-1.17,3.04-1.86,4.81-2.04-.71.73-1.06,1.82-.83,2.81.35,1.46,1.91,2.51,3.38,2.29-.34.67-.24,1.54.24,2.12Z"/><path class="cls-4" d="m77.11,96.37c-1.09.2-2.1.77-2.83,1.61-.55-.77-.78-1.77-.59-2.69-.48.74-.92,1.52-1.15,2.38-.16.58-.21,1.2-.11,1.79-.98-.53-2.09-.77-3.19-1-.32.71-.19,1.58.29,2.19.87-.46,1.87-.65,2.85-.56-.85,1.07-1.31,2.45-1.23,3.82.26-.77.69-1.41,1.26-1.99-.14,1.52.59,3.09,1.83,3.98.1-1.4-.04-2.78-.35-4.15,1.13-.31,2.17-.85,3.08-1.58-.69-.25-1.41-.41-2.14-.5,1.01-.9,1.8-2.02,2.27-3.28Z"/><path class="cls-8" d="m76.06,109.73c1.37,1.21,3.05,2.13,4.86,2.32.61.07,1.24.04,1.8-.19.56-.24,1.04-.73,1.15-1.33.1-.57-.14-1.16-.52-1.59-.38-.43-.89-.74-1.39-1.01s-1.04-.52-1.49-.87c-.71-.55-1.22-1.33-1.89-1.93-.38-.34-.82-.62-1.32-.72-.86-.17-1.77.27-2.26,1-.71,1.06-.54,2.46.21,3.43.25.32.55.61.86.88Z"/><path class="cls-11" d="m77.01,70.31c1.38,4.47,2.76,8.95,4.57,13.27,1.8,4.32,4.04,8.49,7.01,12.11l1.42-1.56c-3.55-8.32-7.9-16.34-13-23.81Z"/><path class="cls-4" d="m70.98,78.07c5.32,6.67,12.94,11.28,18.18,18.01l.92-2.36c-4.5-7.05-11.3-12.62-19.1-15.65Z"/><path class="cls-11" d="m88.03,92.75c-2.05-1.5-4.26-2.77-6.58-3.79,2.77,2.22,5.32,4.72,7.66,7.4l1.28-1.19c-.53-1.01-1.43-1.75-2.35-2.42Z"/><path class="cls-7" d="m88.63,96.73c1.97,3.59,3.27,7.53,3.84,11.58.1.73.18,1.48.45,2.17.27.69.75,1.34,1.43,1.62.88.36,1.95.03,2.62-.66.66-.69.96-1.67.99-2.62.04-1.29-.35-2.56-.81-3.77-1.77-4.76-4.46-9.18-7.87-12.94.19,1.13.31,2.23.32,3.38-.84-.55-1.65-1.08-2.54-1.55.53.98,1.03,1.81,1.56,2.78Z"/><path class="cls-11" d="m141.7,108.57c-4.16-2.15-8.32-4.31-12.25-6.85-3.93-2.54-7.63-5.48-10.67-9.04l1.79-1.13c7.56,4.97,14.68,10.67,21.13,17.01Z"/><path class="cls-4" d="m132.99,113.13c-5.62-6.41-8.81-14.73-14.5-21.08l2.49-.49c6.14,5.68,10.42,13.36,12.01,21.57Z"/><path class="cls-11" d="m121.56,93.75c1.11,2.28,1.98,4.68,2.56,7.15-1.7-3.12-3.7-6.08-5.93-8.85l1.4-1.04c.9.7,1.47,1.72,1.97,2.74Z"/><path class="cls-7" d="m117.75,92.45c-3.18-2.57-6.83-4.56-10.72-5.83-.7-.23-1.42-.44-2.06-.83-.63-.38-1.18-.97-1.34-1.7-.2-.93.32-1.93,1.11-2.46.79-.53,1.81-.65,2.75-.51,1.28.19,2.46.8,3.57,1.46,4.37,2.59,8.24,6.02,11.34,10.04-1.07-.39-2.14-.7-3.27-.92.39.93.77,1.81,1.07,2.77-.87-.69-1.6-1.33-2.46-2.03Z"/><path class="cls-4" d="m136.35,92.01c-7.11-5.72-32.3,10.3-18.24,22.37,14.07,12.07,25.59-16.46,18.24-22.37Z"/><path class="cls-1" d="m135.6,92.96c-6.52-5.24-29.59,9.44-16.7,20.49,12.89,11.05,23.44-15.07,16.7-20.49Z"/><path class="cls-9" d="m129.93,106.58c.37-1.15.52-2.41.14-3.59-.9-2.77-4.33-2.78-6.43-1.73-1.13.57-2.09,1.42-2.94,2.35-1.03,1.11-1.94,2.38-2.29,3.87-.34,1.49,0,3.23,1.15,4.31.86.8,2.08,1.15,3.23,1.08,1.15-.07,2.23-.52,3.18-1.13,1.87-1.2,3.28-3.05,3.96-5.17Z"/><path class="cls-8" d="m123.94,95.82c-.61.44-1.19.94-1.59,1.58-.4.64-.61,1.42-.43,2.15s.79,1.37,1.54,1.45c.53.06,1.06-.16,1.55-.37,1.17-.5,2.35-1,3.52-1.5,1.14-.48,2.28-.97,3.32-1.63.6-.38,1.21-.87,1.42-1.55.23-.74-.07-1.58-.66-2.08-1.17-.99-3.02-.44-4.34-.1-1.55.41-3.03,1.1-4.33,2.04Z"/><path class="cls-4" d="m87.77,111.35c-1.13,1.19-2.95,1.67-4.52,1.18-1.57-.48-2.81-1.9-3.08-3.52-.82,0-1.64,0-2.45-.16s-1.59-.49-2.17-1.07c-.58-.58-.92-1.43-.76-2.23.17-.86.9-1.54,1.73-1.82.83-.27,1.75-.19,2.59.08.83.27,1.6.71,2.36,1.15.78-.79,2.04-1.05,3.1-.72s1.94,1.1,2.61,1.98c.56.73,1.01,1.57,1.17,2.48.16.91.05,1.97-.58,2.64Z"/><path class="cls-11" d="m82.67,105.18c-.12-.23-.45-.02-.34.21.43.85.95,1.65,1.55,2.39-1.21-.53-2.46-.98-3.74-1.34-1.09-.31-2.19-.56-3.31-.75-.25-.04-.34.35-.09.39,3.3.56,6.5,1.68,9.45,3.28-1.03.02-2.06.2-3.03.55-.24.09-.12.47.12.38,1.17-.42,2.41-.6,3.65-.52.3.17.59.35.88.53.96.6,1.89,1.26,2.78,1.96.2.16.48-.13.27-.29-1.89-1.5-3.95-2.77-6.13-3.79,0-.02-.02-.03-.03-.05-.81-.88-1.49-1.86-2.03-2.93Z"/><path class="cls-4" d="m115.58,71.64c-1.16,1.59-1.32,3.84-.42,5.58.91,1.74,2.84,2.9,4.81,2.87.18.96.35,1.94.72,2.85.36.91.92,1.77,1.73,2.33.81.56,1.88.77,2.79.41.98-.39,1.62-1.39,1.77-2.43.14-1.04-.16-2.1-.66-3.03s-1.18-1.73-1.87-2.53c.76-1.09.79-2.63.18-3.8-.62-1.18-1.71-2.04-2.9-2.65-.98-.5-2.07-.86-3.17-.84-1.1.01-2.33.36-2.98,1.26Z"/><path class="cls-11" d="m123.96,76.32c.3.09.12.53-.17.45-1.09-.32-2.15-.76-3.14-1.31.88,1.32,1.68,2.69,2.39,4.11.6,1.21,1.14,2.46,1.6,3.73.11.29-.33.48-.44.19-1.38-3.77-3.38-7.3-5.9-10.42.2,1.22.21,2.47,0,3.69-.05.3-.53.25-.48-.06.24-1.47.18-2.96-.17-4.41-.27-.31-.53-.62-.81-.92-.91-1-1.89-1.95-2.91-2.85-.23-.2.05-.59.28-.39,2.17,1.9,4.12,4.05,5.79,6.4.02,0,.04.02.07.03,1.21.77,2.52,1.35,3.89,1.75Z"/><path class="cls-3" d="m94.8,96.96c1.58.43,3.39-.11,4.48-1.34,1.09-1.23,1.41-3.08.8-4.61.7-.43,1.4-.85,2.01-1.41s1.11-1.25,1.3-2.04c.19-.8.04-1.7-.52-2.3-.59-.64-1.57-.85-2.42-.65-.85.2-1.59.75-2.17,1.42-.57.66-1,1.44-1.42,2.21-1.08-.27-2.28.16-3.02,1-.73.83-1.08,1.95-1.2,3.05-.1.92-.05,1.87.29,2.72.34.86.98,1.71,1.87,1.95Z"/><path class="cls-11" d="m95.95,89.03c-.02-.26.38-.25.4,0,.08.95.05,1.9-.08,2.84.76-1.08,1.6-2.11,2.5-3.09.77-.83,1.58-1.62,2.43-2.36.19-.17.47.12.28.29-2.53,2.2-4.68,4.81-6.37,7.71.89-.52,1.86-.9,2.88-1.1.25-.05.35.34.1.39-1.22.25-2.37.74-3.39,1.45-.16.3-.32.6-.48.91-.51,1.01-.96,2.05-1.35,3.12-.09.24-.47.14-.39-.11.83-2.26,1.93-4.42,3.27-6.43,0-.02,0-.04,0-.06.24-1.17.31-2.37.21-3.56Z"/><path class="cls-3" d="m147.46,90.65c-.14-.42-.35-.84-.68-1.14-.5-.45-1.17-.54-1.85-.5-.08.19-.06.41.02.6.08.19.22.39.35.55.4-.25.95-.11,1.29.21.34.33.5.8.57,1.26.17,1.01,0,2.07-.45,2.98-.64.06-1.25.41-1.63.93l2.74.8c-.02-.65-.34-1.31-.86-1.7.74-1.17.92-2.68.48-3.99Z"/><path class="cls-2" d="m141.64,103.8c1.9.01,3.68.2,5.34,1.08.79-1.1,1.39-2.34,1.74-3.65.32-1.21.44-2.51.06-3.71-.38-1.19-1.32-2.26-2.55-2.53-.9-.2-2.05.08-2.51.91-.49.87-.57,1.74-.78,2.7-.24,1.08-.57,2.14-.99,3.17-.18.44-.38.87-.6,1.3.11.23.21.47.29.72Z"/><path class="cls-8" d="m144.59,96.09c-.21.26-.3.59-.35.92-.05.33-.07.66-.16.98-.13.43-.38.82-.43,1.27-.03.26.03.55.25.69.22.15.52.09.74-.06.21-.16.35-.39.48-.62.46-.81.92-1.67.92-2.6,0-.34-.14-.81-.51-.93-.32-.1-.74.11-.93.36Z"/><path class="cls-3" d="m58.22,82.39c.06-.44.2-.88.47-1.24.41-.53,1.06-.73,1.72-.82.12.17.13.39.08.59s-.15.42-.25.6c-.43-.18-.96.06-1.23.44-.27.38-.35.87-.34,1.34,0,1.02.36,2.03.96,2.85.64-.06,1.3.18,1.76.63l-2.55,1.26c-.09-.65.1-1.34.55-1.82-.93-1.02-1.37-2.47-1.17-3.84Z"/><path class="cls-11" d="m58.14,89.36c.16-1.24.9-2.45,2.05-2.93.85-.36,2.02-.28,2.63.46.63.77.86,1.61,1.24,2.51.43,1.02.94,2,1.53,2.94.73,1.16,1.58,2.25,2.65,3.11,1.07.85,2.36,1.46,3.73,1.55.45.03.94.02,1.38.11.49.1.67.72.32,1.07-.43.43-1.07.7-1.68.87-2.52.69-5.29.46-7.67-.64-2.38-1.1-4.35-3.05-5.46-5.42-.53-1.13-.87-2.39-.71-3.63Z"/><path class="cls-8" d="m62,87.22c.25.22.4.53.5.84.11.31.19.64.33.93.2.4.52.74.65,1.17.07.25.06.54-.12.72-.19.18-.5.18-.73.07-.23-.11-.41-.32-.58-.52-.6-.71-1.2-1.48-1.36-2.39-.06-.33,0-.82.33-1,.3-.16.74-.02.98.19Z"/><path class="cls-7" d="m69.07,116l78.82-1.25s-1.18,63.13-7.73,66.89c-6.55,3.76-61.73,4.85-64.55,1.07-4.46-5.99-6.55-66.71-6.55-66.71Z"/><path class="cls-10" d="m83.2,120.95s3.7,50.81,6.44,52.32c2.74,1.51,36.27,1.12,38.21-.68,1.92-1.78,3.15-51.64,3.15-51.64h-47.8Z"/><path class="cls-1" d="m148.44,107.25l-81.51,1.19c-1.22.02-2.18,1.06-2.1,2.27l.72,11.06c.07,1.13,1.02,2.01,2.15,2l80.79-.8c1.17-.01,2.11-.96,2.11-2.13v-11.46c0-1.19-.98-2.15-2.17-2.13Z"/><path class="cls-5" d="m110.07,146.23l7.48-.3-.95-6.24-1.48.86s-2.8-5.84-7.1-5.96c-4.3-.13-8.62,9.55-8.62,9.55l7.31,1.41,1.62-5.31,2.99,3.94-1.26,2.04Z"/><path class="cls-5" d="m122.58,148.77l-6.17,4.17,2.61,4.9-4.9-.67-.55-2.34-5.08,5.5,5.08,3.74.43-1.65s6.11,2.15,9.24-.8c3.13-2.95-.66-12.85-.66-12.85Z"/><path class="cls-5" d="m98.94,157.03l2.42-4.31,2.38.35-3.25-6.75-5.35,3.35,1.38,1.01s-4.24,4.9-2.65,8.89c1.59,3.99,12.19,4.11,12.19,4.11l-1.61-7.27-5.52.62Z"/><path class="cls-8" d="m87.28,127.43c-3.16.28-6.58.92-8.68,3.3-.99,1.12-1.61,2.68-1.26,4.14.32,1.29,1.36,2.31,2.54,2.91s2.52.82,3.84,1c7.9,1.06,15.92.6,23.88.14,1.51-.09,3.08-.19,4.42-.89,2.43-1.26,3.56-4.52,2.52-7.05-1.58-3.84-6.05-3.66-9.51-3.74-5.92-.12-11.85-.35-17.76.18Z"/></g></g></svg>