<?xml version="1.0" encoding="UTF-8"?><svg xmlns="http://www.w3.org/2000/svg" viewBox="0 0 207.16 219.06"><defs><style>.cls-1{fill:#ffce88;}.cls-1,.cls-2,.cls-3,.cls-4,.cls-5,.cls-6,.cls-7,.cls-8,.cls-9,.cls-10,.cls-11,.cls-12{stroke-width:0px;}.cls-2{fill:#a36029;}.cls-13{isolation:isolate;}.cls-3{fill:#b82727;}.cls-4{fill:#703f12;}.cls-5{fill:#7b8c3b;}.cls-6{fill:#5d6d23;}.cls-7{fill:#dc4545;}.cls-8{fill:#ffba5f;}.cls-9{fill:#fff;mix-blend-mode:soft-light;opacity:.5;}.cls-10{fill:#47270c;}.cls-11{fill:#e2a050;}.cls-12{fill:#343a12;}</style></defs><g class="cls-13"><g id="TEXTS"><path class="cls-10" d="m160.99,94.61c-1.31-3.96-4.74-7.21-8.83-8.05-4.09-.84-8.65.89-10.94,4.38-.3-1.41-1.35-2.63-2.7-3.13-1.35-.5-2.94-.26-4.09.61.34-2.74-.76-5.62-2.84-7.43s-5.08-2.52-7.75-1.81c-1.35.36-2.4,1.13-3.53,1.93-1.1-4.65-4.67-8.63-9.16-10.23-4.5-1.6-9.78-.76-13.56,2.16-3.78,2.91-5.94,7.81-5.54,12.57-1.69-.46-3.6-.07-4.98,1.01-1.38,1.09-2.2,2.85-2.15,4.6-4.42-1.59-9.57-1-13.52,1.55-3.95,2.55-6.61,6.99-6.99,11.68l1.17,1.4c31.19,2.42,62.44,2.68,93.67.74,2.3-3.48,3.05-8.01,1.73-11.97Z"/><path class="cls-5" d="m86.23,97.05c1.96.53,4.2-.14,5.55-1.66,1.35-1.52,1.75-3.82,1-5.7.87-.53,1.74-1.06,2.49-1.74.75-.69,1.37-1.54,1.61-2.53.24-.99.05-2.1-.64-2.85-.74-.8-1.94-1.05-3-.81-1.06.25-1.97.93-2.68,1.75-.71.82-1.24,1.78-1.76,2.74-1.34-.33-2.83.2-3.74,1.24-.91,1.03-1.34,2.41-1.49,3.78-.12,1.14-.06,2.31.36,3.37.42,1.06,1.21,2.12,2.32,2.42Z"/><path class="cls-12" d="m87.66,87.23c-.03-.32.47-.31.49,0,.1,1.18.06,2.36-.1,3.52.95-1.34,1.98-2.62,3.09-3.82.95-1.03,1.96-2.01,3.01-2.92.24-.21.58.15.34.36-3.13,2.72-5.8,5.96-7.89,9.54,1.1-.65,2.31-1.11,3.56-1.37.31-.06.43.42.12.48-1.51.31-2.93.92-4.2,1.79-.2.37-.4.75-.59,1.12-.63,1.25-1.19,2.54-1.67,3.86-.11.3-.59.17-.48-.13,1.03-2.8,2.4-5.48,4.05-7.96,0-.02,0-.05,0-.07.3-1.45.38-2.93.26-4.41Z"/><path class="cls-3" d="m111.25,92.41c.33,1.01,1.01,1.89,1.82,2.57t.01.01c.38.32.8.61,1.27.79.16.06.31.1.48.14.24.04.49.05.74.01-.43,1.62-1.28,3.14-2.38,4.42-1.59,1.84-3.71,3.27-6.08,3.81-2.78.64-5.78.01-8.1-1.64-2.41-1.72-3.75-4.52-3.76-7.46-.01-5.66,4.87-10.45,10.5-10.46-.11.27-.18.56-.2.87,0,.11-.02.22-.01.33,0,.8.33,1.6.96,2.07.78.58,1.85.56,2.81.44-.12.48.28.97.75,1.1.47.14.98.03,1.46-.08-.34.57-.49,1.25-.47,1.92,0,.4.08.79.2,1.17Z"/><path class="cls-7" d="m111.53,89.33c-.34.57-.49,1.25-.47,1.92,0,.4.08.79.2,1.17.33,1.01,1.01,1.89,1.82,2.57t.01.01c.38.32.8.61,1.27.79-.38,1.42-1.13,2.75-2.09,3.86-1.4,1.62-3.27,2.88-5.35,3.36-2.44.56-5.09,0-7.13-1.45-2.12-1.52-3.3-3.98-3.31-6.56-.01-4.93,4.19-9.09,9.06-9.2,0,.8.33,1.6.96,2.07.78.58,1.85.56,2.81.44-.12.48.28.97.75,1.1.47.14.98.03,1.46-.08Z"/><path class="cls-3" d="m111.25,92.41c.33,1.01,1.01,1.89,1.82,2.57t.01.01c-.26,1.62-1.19,3.13-2.31,4.36-.11.12-.23.25-.36.37-.78.78-1.66,1.46-2.67,1.89-.93.4-1.96.56-2.96.4-.93-.16-1.6-.89-1.77-1.81-.09-.51-.02-1.05.21-1.52.09-.17.19-.34.31-.48.75-.9,2.06-1.17,2.83-2.05.6-.67.79-1.59,1.14-2.41.41-.96,1.09-1.83,2.03-2.27.48-.22,1.01-.3,1.52-.23,0,.4.08.79.2,1.17Z"/><path class="cls-3" d="m98.05,96.35c-.2-.92-.07-1.89.2-2.8.67-2.26,2.22-4.24,4.26-5.43.52-.3,1.08-.56,1.67-.67.59-.11,1.23-.07,1.77.2.92.46,1.44,1.61,1.17,2.61-.28,1.05-1.25,1.75-2.18,2.31-.93.57-1.94,1.15-2.39,2.14-.27.59-.31,1.26-.39,1.9s-.24,1.32-.69,1.79c-1.38,1.44-3.13-.78-3.41-2.06Z"/><path class="cls-10" d="m105.16,89.59c-.13-.26-.1-.53.06-.61.16-.08.39.07.52.33.13.26.1.53-.06.61-.16.08-.39-.07-.52-.33Z"/><path class="cls-10" d="m99.4,94.38c-.29.01-.53-.12-.54-.29,0-.18.22-.33.51-.35.29-.01.53.12.54.29,0,.18-.22.33-.51.35Z"/><path class="cls-10" d="m107.69,99.64c-.29.01-.53-.12-.54-.29,0-.18.22-.33.51-.35.29-.01.53.12.54.29,0,.18-.22.33-.51.35Z"/><path class="cls-10" d="m108.61,95.99c-.27-.1-.44-.31-.38-.48.06-.17.33-.22.6-.13.27.1.44.31.38.48-.06.17-.33.22-.6.13Z"/><path class="cls-10" d="m102.25,89.97c-.25-.15-.37-.4-.28-.55s.37-.15.61,0c.25.15.37.4.28.55-.09.15-.37.15-.61,0Z"/><path class="cls-10" d="m101.04,96.07c-.26.13-.53.1-.61-.06s.07-.39.33-.52c.26-.13.53-.1.61.06.08.16-.07.39-.33.52Z"/><path class="cls-10" d="m110.33,98.18c-.21-.2-.28-.47-.16-.59.12-.13.39-.07.6.13.21.2.28.47.16.59-.12.13-.39.07-.6-.13Z"/><path class="cls-10" d="m110.47,93.07c-.29.05-.54-.06-.57-.24-.03-.18.18-.35.47-.4.29-.05.54.06.57.24.03.18-.18.35-.47.4Z"/><path class="cls-10" d="m103.28,92.6c-.29-.01-.52-.16-.51-.34,0-.18.25-.31.54-.3s.52.16.51.34-.25.31-.54.3Z"/><path class="cls-10" d="m100.36,91.68c-.1-.27-.06-.54.11-.6.17-.06.38.1.49.37.1.27.06.54-.11.6-.17.06-.38-.1-.49-.37Z"/><path class="cls-10" d="m104.65,100.5c-.1-.27-.06-.54.11-.6.17-.06.38.1.49.37.1.27.06.54-.11.6-.17.06-.38-.1-.49-.37Z"/><path class="cls-10" d="m111.91,95.28c-.29-.01-.52-.16-.51-.34s.25-.31.54-.3c.29.01.52.16.51.34,0,.18-.25.31-.54.3Z"/><path class="cls-9" d="m108.61,101.86c.66-.29,1.29-.71,1.62-1.35.33-.64.23-1.53-.36-1.93-.53-.36-1.24-.24-1.85-.06-.73.23-1.45.54-2.22.53-.67,0-1.32-.25-1.99-.35-.67-.1-1.44,0-1.85.54-.27.35-.33.84-.21,1.27.55,1.97,3.51,2.12,5.15,1.85.59-.09,1.16-.26,1.7-.5Z"/><path class="cls-6" d="m109.52,103.13c1.73,1.16,4.13,1.25,5.94.22,1.81-1.03,2.96-3.13,2.85-5.22,1.02-.23,2.04-.46,2.99-.88.95-.42,1.84-1.05,2.4-1.93.56-.88.74-2.03.32-2.98-.45-1.02-1.54-1.67-2.65-1.78-1.11-.11-2.22.25-3.18.82s-1.79,1.33-2.61,2.08c-1.19-.76-2.82-.73-4.04-.03-1.22.7-2.1,1.9-2.69,3.18-.49,1.06-.82,2.23-.77,3.4.06,1.17.48,2.46,1.45,3.11Z"/><path class="cls-12" d="m114.15,94.06c.08-.32.56-.15.48.17-.29,1.17-.72,2.31-1.26,3.39,1.36-.99,2.78-1.89,4.26-2.7,1.26-.69,2.56-1.31,3.89-1.85.3-.12.52.34.21.46-3.94,1.61-7.6,3.88-10.81,6.68,1.28-.26,2.61-.32,3.91-.16.32.04.28.55-.04.51-1.57-.2-3.15-.07-4.67.36-.32.29-.64.59-.95.9-1.03,1.01-1.99,2.08-2.9,3.2-.2.25-.63-.03-.42-.29,1.93-2.38,4.13-4.53,6.56-6.41,0-.02.01-.05.03-.07.76-1.31,1.33-2.72,1.7-4.2Z"/><path class="cls-7" d="m79.85,91.05c.75.27,1.65.07,2.21-.51.22,1.26.57,2.52,1.27,3.6.7,1.07,1.8,1.93,3.07,2.12,1.02.15,2.07-.16,2.95-.68.23-.13.44-.27.65-.43.04.58.03,1.18-.02,1.76-.29,3.6-2.19,7.11-5.26,9.01-3.06,1.9-7.27,1.98-10.21-.1-2.76-1.95-4.09-5.49-3.82-8.86-1.03-2-1.28-4.42-.58-6.56.59-1.79,1.78-3.33,3.31-4.45-.25,1.05,0,2.23.75,3.02,1.1,1.15,3.09,1.27,4.32.28.05.8.6,1.54,1.35,1.81Z"/><path class="cls-6" d="m72.35,92.22c-.89.77-1.51,1.84-1.73,2.99-.92-.41-1.66-1.2-1.98-2.15-.04.94-.03,1.89.22,2.8.17.62.46,1.21.86,1.7-1.18.04-2.33.42-3.46.79.09.82.68,1.54,1.44,1.84.55-.89,1.37-1.6,2.31-2.04-.21,1.44.11,2.95.93,4.16-.18-.84-.12-1.67.09-2.5.69,1.47,2.2,2.52,3.82,2.66-.66-1.34-1.53-2.53-2.55-3.61.86-.89,1.53-1.94,1.97-3.1-.77.14-1.51.38-2.23.69.44-1.36.56-2.81.32-4.22Z"/><path class="cls-9" d="m78.57,105.03c1.9.37,3.93.31,5.7-.48.59-.27,1.16-.62,1.54-1.15.39-.52.56-1.23.34-1.83-.21-.57-.75-.98-1.33-1.18-.58-.19-1.21-.2-1.82-.17-.61.03-1.23.08-1.83,0-.95-.12-1.83-.56-2.77-.75-.53-.11-1.09-.13-1.6.05-.88.31-1.48,1.2-1.53,2.13-.08,1.35.83,2.54,2.04,3.03.41.16.83.27,1.26.35Z"/><path class="cls-12" d="m106.13,62.83c3.3,3.71,6.6,7.43,9.53,11.45,2.92,4.01,5.47,8.34,7.13,13.02l-2.2.43c-5.6-7.8-10.48-16.16-14.46-24.91Z"/><path class="cls-6" d="m116.5,61.63c3.13,8.5,3.12,17.95,6.34,26.41l-2.65-.46c-3.92-7.97-5.23-17.2-3.69-25.95Z"/><path class="cls-12" d="m120.44,85.18c-.24-2.68-.17-5.39.19-8.06.49,3.74,1.36,7.43,2.5,11.02l-1.78.5c-.62-1.03-.8-2.26-.91-3.46Z"/><path class="cls-8" d="m123.72,87.92c2.17,3.76,5.03,7.12,8.4,9.86.61.5,1.24.98,1.73,1.6.48.62.8,1.41.68,2.19-.16,1-1.05,1.79-2.04,2.01-.99.22-2.04-.05-2.92-.54-1.2-.67-2.13-1.73-2.98-2.81-3.34-4.23-5.87-9.1-7.41-14.27.92.8,1.86,1.51,2.89,2.15-.04-1.07-.08-2.09,0-3.15.6,1.01,1.07,1.93,1.66,2.95Z"/><path class="cls-6" d="m163.11,81.26c-7.55-6.07-34.29,10.94-19.36,23.75,14.93,12.81,27.17-17.47,19.36-23.75Z"/><path class="cls-1" d="m162.31,82.27c-6.92-5.56-31.41,10.02-17.73,21.75,13.68,11.73,24.88-16,17.73-21.75Z"/><path class="cls-10" d="m156.3,96.72c.39-1.22.55-2.56.15-3.81-.95-2.94-4.6-2.95-6.82-1.84-1.2.6-2.22,1.51-3.13,2.5-1.09,1.18-2.06,2.53-2.43,4.11s0,3.43,1.22,4.58c.91.85,2.21,1.22,3.43,1.15s2.36-.55,3.37-1.2c1.98-1.27,3.49-3.24,4.21-5.49Z"/><path class="cls-9" d="m149.94,85.31c-.65.47-1.26,1-1.69,1.68-.42.68-.64,1.51-.45,2.28.19.77.84,1.45,1.64,1.54.57.06,1.12-.17,1.65-.39,1.24-.53,2.49-1.06,3.73-1.59,1.21-.51,2.42-1.03,3.52-1.73.64-.41,1.28-.92,1.5-1.65.24-.78-.08-1.68-.7-2.21-1.24-1.05-3.2-.47-4.61-.1-1.65.43-3.21,1.16-4.59,2.16Z"/><path class="cls-2" d="m152.64,101.75c-2.1-.82-4.54-.29-6.47.88-.04-3.47-.87-7.07-3.1-9.73-2.23-2.66-6.08-4.13-9.33-2.89-2.12.81-3.73,2.65-4.74,4.69-1.01,2.04-1.5,4.29-1.98,6.51-.96-1.17-2.66-1.59-4.13-1.2-1.46.38-2.68,1.48-3.42,2.8-.74,1.32-1.04,2.85-1.1,4.36h37.19c.68-2.15-.83-4.58-2.93-5.4Z"/><rect class="cls-4" x="62.89" y="104.36" width="99.84" height="61.41"/><polygon class="cls-11" points="60.08 103.4 165.54 103.4 164.58 122.07 60.08 122.9 60.08 103.4"/><path class="cls-9" d="m92.39,105.92c-4.48.17-9.16.4-13.03,2.66-1.33.78-2.58,1.85-3.17,3.27s-.4,3.26.77,4.27c.93.81,2.25.96,3.48,1.03,2.69.16,5.39.11,8.09.07,6.08-.1,12.17-.21,18.25-.38,1.94-.05,3.94-.13,5.69-.95s3.22-2.59,3.06-4.52c-.21-2.56-3.25-4.51-5.58-5-3.49-.73-7.27-.68-10.82-.64-2.25.02-4.5.11-6.74.19Z"/><polygon class="cls-11" points="60.56 125.23 164.82 125.23 165.06 143.91 60.56 144.73 60.56 125.23"/><polygon class="cls-4" points="63.37 164.95 62.89 179.49 66.7 179.49 72.01 164.95 63.37 164.95"/><polygon class="cls-4" points="161.18 164.95 161.66 179.49 157.85 179.49 152.54 164.95 161.18 164.95"/><polygon class="cls-11" points="60.08 147.07 165.54 147.07 164.58 165.75 60.08 166.57 60.08 147.07"/><path class="cls-10" d="m65.53,108.02c-1.56,0-1.56,2.42,0,2.42s1.56-2.42,0-2.42Z"/><path class="cls-10" d="m65.88,114.82c-1.56,0-1.56,2.42,0,2.42s1.56-2.42,0-2.42Z"/><path class="cls-10" d="m65.53,130.45c-1.56,0-1.56,2.42,0,2.42s1.56-2.42,0-2.42Z"/><path class="cls-10" d="m65.88,137.25c-1.56,0-1.56,2.42,0,2.42s1.56-2.42,0-2.42Z"/><path class="cls-10" d="m158.64,130.45c-1.56,0-1.56,2.42,0,2.42s1.56-2.42,0-2.42Z"/><path class="cls-10" d="m158.99,137.25c-1.56,0-1.56,2.42,0,2.42s1.56-2.42,0-2.42Z"/><path class="cls-10" d="m158.64,152.89c-1.56,0-1.56,2.42,0,2.42s1.56-2.42,0-2.42Z"/><path class="cls-10" d="m158.99,159.68c-1.56,0-1.56,2.42,0,2.42s1.56-2.42,0-2.42Z"/><path class="cls-10" d="m158.64,107.86c-1.56,0-1.56,2.42,0,2.42s1.56-2.42,0-2.42Z"/><path class="cls-10" d="m158.99,114.66c-1.56,0-1.56,2.42,0,2.42s1.56-2.42,0-2.42Z"/><path class="cls-10" d="m65.53,152.89c-1.56,0-1.56,2.42,0,2.42s1.56-2.42,0-2.42Z"/><path class="cls-10" d="m65.88,159.68c-1.56,0-1.56,2.42,0,2.42s1.56-2.42,0-2.42Z"/><path class="cls-5" d="m72.21,74.89c-.43-.2-.84-.47-1.11-.86-.41-.58-.42-1.3-.3-2,.21-.07.44-.01.63.1.19.11.38.28.53.44-.31.39-.24.99.06,1.38.3.4.78.62,1.26.76,1.04.3,2.17.26,3.19-.1.14-.67.58-1.27,1.18-1.6l.5,2.98c-.68-.11-1.33-.52-1.68-1.12-1.32.63-2.93.63-4.26.01Z"/><path class="cls-12" d="m79.27,77.12c-1.21-.55-2.21-1.67-2.34-2.99-.1-.97.34-2.14,1.27-2.53.98-.41,1.9-.38,2.94-.49,1.17-.12,2.32-.34,3.45-.64,1.4-.38,2.77-.91,3.97-1.73,1.2-.82,2.21-1.95,2.73-3.31.17-.45.31-.95.53-1.37.26-.47.94-.46,1.19.01.31.57.38,1.31.36,1.98-.08,2.78-1.16,5.52-3.01,7.59-1.85,2.08-4.44,3.47-7.19,3.87-1.31.19-2.69.15-3.9-.4Z"/><path class="cls-9" d="m78.27,72.54c.3-.19.66-.24,1.01-.25.35-.01.7,0,1.05-.05.47-.08.91-.3,1.39-.29.27,0,.57.1.7.35.13.25.03.56-.16.76-.19.2-.45.32-.71.43-.91.39-1.87.76-2.85.64-.36-.04-.83-.24-.91-.65-.07-.35.21-.76.49-.94Z"/><path class="cls-5" d="m148.34,69.55c.04-.47,0-.96-.19-1.39-.3-.65-.92-1.01-1.59-1.25-.16.15-.23.38-.23.6,0,.22.06.47.12.68.49-.08.98.28,1.17.74.19.46.15.98.04,1.47-.25,1.05-.85,2.01-1.67,2.72-.65-.21-1.39-.12-1.97.23l2.34,1.91c.25-.65.21-1.41-.14-2.01,1.2-.84,2-2.23,2.12-3.69Z"/><path class="cls-7" d="m146.78,76.79c.12-1.32-.36-2.74-1.43-3.52-.79-.57-2.03-.77-2.83-.15-.84.65-1.27,1.46-1.88,2.31-.68.95-1.44,1.85-2.27,2.68-1.02,1.03-2.17,1.96-3.47,2.59-1.31.63-2.79.95-4.22.73-.48-.07-.98-.2-1.45-.21-.53-.01-.86.59-.58,1.04.35.55.95.98,1.54,1.29,2.45,1.31,5.37,1.73,8.09,1.15,2.72-.58,5.22-2.14,6.93-4.33.82-1.05,1.47-2.27,1.59-3.59Z"/><path class="cls-9" d="m143.29,73.66c-.31.16-.53.45-.72.75-.19.3-.34.61-.56.89-.3.37-.71.65-.94,1.06-.13.24-.19.55-.04.78.15.23.47.3.74.24.27-.06.5-.23.72-.4.78-.6,1.59-1.25,1.97-2.16.14-.33.2-.85-.11-1.11-.27-.23-.76-.19-1.06-.04Z"/><polygon class="cls-10" points="70.42 176.88 72.01 179.26 153.24 179.49 154.25 175.65 70.42 176.88"/><polygon class="cls-4" points="75.89 166.45 147.23 165.88 154.25 175.65 70.42 176.88 75.89 166.45"/><path class="cls-10" d="m148.06,127.61c0,.3-.29,11.95-.52,23.44-.17,8.03-.31,14.83-.31,14.83l-71.34.56-.03-22.1-.02-16.73h72.21Z"/><path class="cls-2" d="m147.54,151.06c-.17,8.03-.31,14.83-.31,14.83-9.18,2.53-60.38,8.87-71.34.56l-.03-22.1c1.73-.84,3.69-1.23,5.61-1.09,3.07.23,6.03,1.83,7.9,4.28.51-1.46,1.98-2.41,3.5-2.7,1.52-.29,3.08,0,4.57.36-1.72-3.82-1.08-8.65,1.75-11.75,2.83-3.09,7.74-4.14,11.49-2.26,3.75,1.87,5.88,6.59,4.6,10.59,1.71-1.37,3.81-2.47,6-2.31,2.2.16,4.36,1.97,4.26,4.16,1.97-3.08,6.3-4.41,9.65-2.94,3.36,1.45,5.36,5.5,4.45,9.05,2.55-.72,5.58-.15,7.89,1.32Z"/><path class="cls-10" d="m125.31,158.77c-.06-1-.21-2.01-.77-2.85-.57-.86-1.47-1.42-2.51-1.39-2.04.05-3.23,1.72-3.74,3.51-.66-.5-1.58-.59-2.37-.14-1.39.81-1.59,2.5-1.25,3.93.14.58,1.04.34.9-.25-.22-.91-.22-2,.53-2.67.58-.52,1.66-.57,1.98.28.14.37.82.51.9,0,.24-1.6,1.01-3.55,2.88-3.73,2.2-.21,2.5,2.44,2.56,4.02.01.32.4.62.7.4.77-.56,1.81-.01,1.57.98-.14.58.76.83.9.25.35-1.46-.96-2.69-2.27-2.34Z"/><path class="cls-10" d="m108.59,144.59c-.68-.06-1.31.18-1.85.55-.14-1.43-1.31-2.65-2.87-2.69-.94-.03-1.84.44-2.4,1.19-.64.86-.69,1.96-.28,2.93.23.55,1.03.08.8-.47-.57-1.35.56-2.84,2-2.71,1.41.13,2.16,1.56,1.67,2.83-.17.43.48.79.78.45.45-.52,1-1.03,1.71-1.14.63-.09,1.34.24,1.35.95.01.6.94.6.93,0-.02-1.03-.85-1.79-1.85-1.88Z"/><path class="cls-10" d="m87.85,157.73c-.55-.2-1.15-.11-1.64.17-.09-.79-.3-1.56-.85-2.17-.77-.86-1.92-.94-2.91-.41-2.07,1.1-2.92,3.73-2.1,5.87.21.55,1.11.31.9-.25-.63-1.65-.16-3.57,1.32-4.6.69-.48,1.52-.63,2.13.06.62.69.62,1.71.65,2.58.01.44.65.67.87.24.23-.47.77-.77,1.29-.61.5.16.8.73.7,1.23-.12.59.78.84.9.25.2-.96-.3-1.99-1.25-2.34Z"/><path class="cls-10" d="m134.66,146.84c-.52-.09-1.05.05-1.47.35-.5-1.26-1.76-2.11-3.19-1.91-1.79.24-2.92,1.99-2.52,3.73.13.58,1.03.34.9-.25-.27-1.2.52-2.4,1.75-2.56,1.23-.17,2.31.78,2.37,2,.02.42.67.69.87.24.18-.42.58-.74,1.07-.69.44.05.82.45.86.89.06.59.99.6.93,0-.09-.86-.68-1.63-1.56-1.8Z"/></g></g></svg>