<?xml version="1.0" encoding="UTF-8"?><svg xmlns="http://www.w3.org/2000/svg" viewBox="0 0 207.16 219.06"><defs><style>.cls-1{fill:#ffce88;}.cls-1,.cls-2,.cls-3,.cls-4,.cls-5,.cls-6{stroke-width:0px;}.cls-7{isolation:isolate;}.cls-2{fill:#703f12;}.cls-3{fill:#dc4545;}.cls-4{fill:#fff;mix-blend-mode:soft-light;opacity:.5;}.cls-5{fill:#47270c;}.cls-6{fill:#e2a050;}</style></defs><g class="cls-7"><g id="TEXTS"><path class="cls-5" d="m94.78,91.24c-1.77-9.24-3.55-18.47-5.32-27.71-.9-4.7-8.09-2.71-7.18,1.98,1.77,9.24,3.55,18.47,5.32,27.71.9,4.7,8.09,2.71,7.19-1.98Z"/><path class="cls-3" d="m90.27,63.46l-9.12,2.32c.16,1.34.38,2.66.66,3.98,3.12-.31,6.12-1.28,8.9-2.72.04-1.2-.11-2.42-.44-3.58Z"/><path class="cls-5" d="m78.79,66.94c-3.21,0-6.18-1.98-7.34-5.1l-3.87-10.38,27.65-6.26,1.5,10.36c.58,4.04-1.97,7.8-5.94,8.74l-10.19,2.42c-.6.14-1.21.21-1.81.21Zm-4.99-12.11l2.01,5.39c.56,1.5,2.15,2.35,3.71,1.98l10.19-2.42c1.61-.38,2.64-1.91,2.41-3.55l-.78-5.37-17.54,3.97Z"/><path class="cls-1" d="m159.07,160.82c.34-.71.29-1.58-.13-2.25-.42-.67-1.19-1.11-1.98-1.14.48-4.77-1.5-9.72-5.17-12.88.87-8.73.51-17.68-.48-26.4.97-1.48.93-3.33-.26-4.65l-86.67,5.55c-.89,1.23-1.24,2.81-.96,4.29.29,1.48,1.21,2.83,2.49,3.65-2.74,8.46-2.96,17.66-.64,26.24-2.84,2.08-4.85,5.17-6,8.46-1.15,3.29-1.25,6.93-.3,10.28,21.18,2.16,42.2,3.89,63.5,4.11,14.31.15,28.97-.21,42.33-5.23.51-4.04-1.98-8.32-5.73-10.04Z"/><path class="cls-5" d="m153.6,139.42c.51,1.16.41,2.58-.26,3.66,2.45.98,4.29,3.34,4.64,5.95.09.69.09,1.41-.14,2.07s-.68,1.26-1.32,1.55c-1.7.77-3.62-.9-5.46-.59-1.09.18-1.93,1.02-2.91,1.52-.89.45-1.95.63-2.89.29s-1.68-1.27-1.64-2.26c.05-1.04.88-1.86,1.73-2.46.85-.59,1.82-1.1,2.4-1.96.7-1.04.7-2.38.55-3.62-.15-1.24-.43-2.49-.2-3.72.21-1.16,1.2-2.59,2.49-2.71,1.25-.12,2.55,1.25,3.01,2.28Z"/><path class="cls-5" d="m66.73,149.47c-.45.02-.91.03-1.35.15-.44.11-.86.33-1.15.68-.49.61-.47,1.48-.42,2.27-1.26.59-2.25,1.69-2.81,2.96-.26.59-.42,1.24-.28,1.87.14.62.65,1.19,1.29,1.25.77.06,1.41-.6,1.81-1.26.4-.67.72-1.43,1.38-1.84,1.17-.73,2.79.02,4.06-.54.65-.29,1.11-.91,1.36-1.57.37-.99.28-2.2-.43-2.99-.79-.88-2.29-1.01-3.47-.96Z"/><path class="cls-4" d="m67.42,146.86c.12,1.82.33,3.66.97,5.37.64,1.71,1.76,3.3,3.36,4.19,1.59.89,3.7.98,5.2-.05,1.79-1.23,2.35-3.62,2.39-5.79.04-2.17-.29-4.39.32-6.48.68-2.32,2.43-4.18,3.33-6.43.98-2.47.8-5.41-.63-7.64-1.43-2.23-4.14-3.64-6.78-3.33-2.95.34-4.41,2.52-5.79,4.87-1.62,2.76-2.19,6.24-2.4,9.38-.13,1.96-.1,3.94.03,5.9Z"/><path class="cls-2" d="m147.35,87.97c-1.63-2.66-4.23-4.72-7.2-5.68-1.97-.64-4.16-.8-6.1-.05-1.93.74-3.54,2.5-3.75,4.56-1.17-.83-2.38-1.66-3.76-2.03-1.39-.37-2.91-.18-3.94.82-.46-2.46-1.18-4.89-2.4-7.08s-2.96-4.12-5.16-5.31c-2.63-1.43-5.74-1.72-8.72-1.51-2.85.2-5.72.84-8.2,2.27-3.89,2.23-6.61,6.38-7.1,10.84-1.15-.08-2.35.2-3.36.77-4.47-2.35-10.18-2.14-14.46.53-4.28,2.68-6.98,7.72-6.82,12.76,9.81,1.43,19.19,2.42,29.06,3.34,18.12,1.69,36.8,1.57,53.68-5.23.5-3.08-.14-6.33-1.77-9Z"/><path class="cls-3" d="m117.33,84.75c-1.63-.11-3.19.96-3.76,2.46.62.11,1.22.29,1.78.56,0-.02.02-.04.02-.05.04-.08.08-.15.13-.22,0,0,.06-.09.08-.12.08-.1.17-.19.26-.28,0,0,.11-.09.12-.1.05-.04.11-.08.17-.11.06-.04.12-.07.19-.1.02-.01.06-.03.08-.04.15-.05.31-.1.47-.12.03,0,.07,0,.1,0,.09,0,.18,0,.27,0,.06,0,.11,0,.17.01.02,0,.16.03.16.03.07.02.15.04.22.06.04.01.08.03.12.04.13.06.26.14.38.22.02.02.09.07.11.09.05.05.1.1.15.15.04.04.07.08.1.12,0,0,.09.12.09.13.05.07.09.15.13.22,0,.01.04.08.06.12.01.04.05.12.05.13.03.08.05.16.07.25,0,.01.02.13.03.15,0,.06.01.13.01.19.02.49.42.95.93.93.49-.02.95-.41.93-.93-.07-2.02-1.63-3.63-3.64-3.76Z"/><path class="cls-3" d="m82.17,87.09c.28-.15.57-.27.87-.39,0,0,0,0,0,0-.04-.06-.08-.13-.11-.2-.01-.02-.01-.02-.02-.03,0,0,0,0,0-.02-.03-.08-.05-.16-.07-.24,0-.02-.01-.06-.02-.08,0-.05,0-.11-.01-.16,0-.08,0-.16,0-.25,0,0,0,0,0,0,0,0,0,0,.01-.03.02-.08.04-.15.06-.22,0-.02.02-.05.03-.06.06-.12.14-.23.2-.31.21-.26.47-.49.69-.75.99-1.13,1.36-2.63,1.02-4.1-.11-.49-.68-.78-1.15-.65-.5.14-.76.65-.65,1.15.12.51.08,1.1-.13,1.62-.24.58-.74.97-1.17,1.5-.89,1.1-1.01,2.54-.31,3.71.25-.18.5-.34.77-.48Z"/><path class="cls-3" d="m116.86,71.37c-1.48-1.23-3.54-.97-5.05.07-1.07.74-1.91,1.8-2.34,3.02.44.08.87.17,1.29.32.17.06.34.13.51.2.01-.04.02-.08.04-.12.01-.02.02-.06.03-.08.03-.07.06-.13.1-.2.07-.13.14-.26.22-.38.03-.05.06-.1.1-.15,0,0,.06-.08.08-.12.03-.03.08-.1.09-.11.05-.06.1-.11.15-.17.1-.11.2-.21.31-.31.05-.05.11-.1.17-.15.02-.02.03-.03.04-.03,0,0,0,0,.02-.01.22-.17.46-.31.71-.44.22-.11.51-.21.85-.29.11-.03.06-.01.13-.02.09,0,.18-.01.27-.01.07,0,.14,0,.21,0,.03,0,.05,0,.07,0,.01,0,.04.01.07.02.06.02.13.03.19.05,0,0,.12.04.16.06.03.02.14.07.15.08.02.01.23.17.12.08.39.32.94.38,1.32,0,.33-.33.39-.99,0-1.32Z"/><path class="cls-3" d="m148.1,83.74c-.17-.53-.63-.72-1.15-.65-2.79.38-5.19,2.45-6.16,5.07.61.09,1.22.24,1.82.39,0,0,0-.01,0-.02.01-.03,0-.03.01-.04,0-.01,0-.01.02-.04.03-.06.06-.12.09-.18.14-.28.29-.55.47-.8.05-.07.09-.13.14-.2.02-.03.02-.03.02-.04,0,0,0,0,.03-.03.09-.11.19-.23.29-.34.21-.23.43-.44.67-.65.05-.04.1-.08.15-.12.02-.01.05-.04.07-.06.12-.09.24-.17.37-.25.27-.17.56-.32.85-.46.02,0,.02-.01.03-.02,0,0,0,0,0,0,.08-.03.15-.06.23-.09.14-.05.28-.1.42-.14.31-.09.63-.15.95-.2.48-.07.79-.71.65-1.15Z"/><path class="cls-5" d="m107.97,78.72c-.57-1.31-1.65-2.41-3.1-2.65-3.28-.53-4.2,3.12-4.39,5.83-.96-.58-2.2-.56-3.12.26-1.45,1.29-.86,3.36-.26,4.9.22.55,1.12.31.9-.25-.43-1.09-1-2.48-.33-3.59.63-1.04,2.12-1.06,2.83-.1.26.36.86.26.87-.24.02-2.08.45-6.63,3.57-5.86,2.84.7,2.76,4.41,2.57,6.66-.05.6.88.59.93,0,.14-1.67.22-3.4-.46-4.97Z"/><path class="cls-5" d="m131.4,90.68c-.56-.2-1.16-.11-1.65.18-.41-1.25-1.53-2.18-2.92-2.19-1.66-.02-2.96,1.27-3.14,2.88-.07.59.87.59.93,0,.12-1.11,1.09-1.96,2.2-1.95,1.18.02,2.11.97,2.15,2.14.02.48.61.61.87.24.28-.39.84-.58,1.29-.39.48.2.69.72.63,1.22-.07.59.86.59.93,0,.1-.9-.46-1.8-1.31-2.11Z"/><path class="cls-5" d="m88.3,93.55c-.29-1.16-1.29-2.07-2.48-2.21-1.01-.12-2.02.37-2.63,1.17-.96-1.13-2.27-2.19-3.81-1.53-1.73.73-1.92,2.78-1.67,4.4.09.59.99.34.9-.25-.18-1.15-.12-2.78,1.15-3.31,1.29-.54,2.41.85,3.09,1.73.18.24.65.36.8,0,.34-.8,1.14-1.38,2.03-1.29.84.08,1.51.75,1.72,1.54.15.58,1.04.33.9-.25Z"/><path class="cls-6" d="m156.46,97.14c-3.24-3.59-8.85-3.69-13.58-2.67-4.99,1.08-9.72,2.81-14.9,2.32-5.59-.54-10.89-.64-16.5.03-7.49.89-14.98,2.37-22.51,2.01-6.6-.32-13.17-2.05-19.74-1.34-3.57.39-7.27,1.64-9.46,4.48-2.19,2.84-2.17,7.53.76,9.6-.96.45-1.61,1.77-1.55,2.83.06,1.06.82,2.04,1.83,2.38-1.37,1.15-1.77,3.79-.27,4.98,1.66,1.31,5.64,1.23,7.64,1.26,5.45.09,10.82-1.14,16.14-2.15,20.32-3.87,41.29-4.3,61.75-1.29,2.43.36,5.03.75,7.27-.26,2.24-1.01,3.75-4.04,2.28-6.02,1.56-2.45,2.82-5.16,3.15-8.05.33-2.89-.36-5.98-2.31-8.13Z"/></g></g></svg>