<?xml version="1.0" encoding="UTF-8"?><svg xmlns="http://www.w3.org/2000/svg" viewBox="0 0 207.16 219.06"><defs><style>.cls-1{fill:#af6822;}.cls-1,.cls-2,.cls-3,.cls-4,.cls-5,.cls-6,.cls-7,.cls-8,.cls-9,.cls-10{stroke-width:0px;}.cls-11{isolation:isolate;}.cls-2{fill:#b82727;}.cls-3{fill:#703f12;}.cls-4{fill:#7b8c3b;}.cls-5{fill:#5d6d23;}.cls-6{fill:#dc4545;}.cls-7{fill:#fff;mix-blend-mode:soft-light;opacity:.5;}.cls-8{fill:#47270c;}.cls-9{fill:#e2a050;}.cls-10{fill:#343a12;}</style></defs><g class="cls-11"><g id="TEXTS"><path class="cls-10" d="m139.78,115.26c.52-4.48,3.13-8.66,6.92-11.1.11-1.52,1.03-2.97,2.24-3.88,1.21-.92,2.83-1.27,4.32-.96.57-2.61,2.56-4.87,5.08-5.76,1.04-.36,2.31-.46,3.12.29.98.9.71,2.57-.06,3.65-.77,1.08-1.93,1.83-2.79,2.85.73-.03,1.48-.06,2.18.13.71.19,1.39.62,1.69,1.29.29.66.18,1.44-.13,2.09-.67,1.43-2.15,2.33-3.69,2.7-1.53.36-3.13.26-4.71.16.83,1.7-.01,4-1.74,4.76-1.72.77-3.99-.16-4.7-1.91-2.52,1.88-4.61,4.69-5.36,7.74"/><path class="cls-5" d="m158.34,88.31c1.31-1.32,2.23-3.03,2.62-4.85.26-1.23.2-2.7-.78-3.49-.77-.61-1.91-.59-2.78-.14-.87.45-1.51,1.26-1.98,2.12-.47.86-.8,1.79-1.24,2.67-1.64-.89-3.7-.77-5.38.03-1.68.8-3.01,2.21-4.01,3.78-1.73,2.71-2.55,5.99-2.32,9.2-1.29.12-2.47,1.07-2.85,2.31-.38,1.24.21,2.5,1.21,3.33-2.43,3-3.92,6.75-4.2,10.6l3.43,3.36c.94-4.4,2.97-8.36,5.82-11.85,1.87.4,3.8.73,5.7.5s3.81-1.11,4.87-2.7c1.07-1.59,1.06-3.95-.31-5.29,2.43.38,5.01-1.37,5.56-3.77.55-2.4-1.02-5.09-3.38-5.8Z"/><path class="cls-4" d="m147.83,83.09c-.39-1-1.1-1.89-2.06-2.36,1.12-1.97.96-4.6-.39-6.42-.66-.89-1.75-1.63-2.83-1.37-.88.21-1.49,1.01-1.91,1.82-1.08,2.1-1.35,4.6-.73,6.88-1.63-.27-3.28.86-3.95,2.37-.67,1.51-.49,3.29.11,4.82.6,1.54,1.6,2.88,2.58,4.21-2.57,0-4.98,2.02-5.45,4.55-.47,2.52,1.07,5.27,3.46,6.2-.67,3.27-2.33,6.34-4.85,8.53l4.83,1.39c2.68-3.76,4.5-8.13,5.29-12.69,1.14-.71,2.42-1.39,3.04-2.58.62-1.19.41-2.93-.79-3.53,2.43-2.2,3.93-5.39,4.08-8.66.05-1.07-.04-2.16-.43-3.16Z"/><path class="cls-10" d="m75.48,113.48c-.4-3.79-2.58-7.36-5.77-9.45-.08-1.29-.84-2.52-1.86-3.31-1.02-.79-2.39-1.1-3.65-.85-.46-2.22-2.12-4.14-4.25-4.92-.87-.32-1.95-.41-2.64.22-.83.76-.63,2.17.02,3.09s1.62,1.57,2.34,2.43c-.62-.03-1.25-.06-1.85.09-.6.15-1.18.52-1.44,1.08-.25.55-.16,1.22.09,1.77.56,1.21,1.8,1.99,3.1,2.31s2.65.25,3.98.17c-.71,1.43-.02,3.38,1.43,4.05,1.45.66,3.38-.1,3.99-1.57,2.11,1.61,3.87,4.01,4.47,6.59"/><path class="cls-5" d="m60,90.5c-1.1-1.13-1.86-2.58-2.18-4.13-.21-1.04-.15-2.29.69-2.95.65-.51,1.62-.49,2.35-.1.73.39,1.26,1.08,1.66,1.81.39.73.66,1.52,1.03,2.27,1.39-.74,3.14-.62,4.55.07,1.41.69,2.53,1.9,3.36,3.23,1.44,2.31,2.11,5.09,1.89,7.81,1.09.11,2.08.93,2.39,1.98.32,1.05-.2,2.12-1.05,2.81,2.03,2.56,3.26,5.75,3.47,9.01l-2.93,2.81c-.76-3.73-2.45-7.1-4.83-10.08-1.59.32-3.22.59-4.83.38-1.61-.21-3.21-.97-4.1-2.33-.89-1.36-.87-3.35.31-4.47-2.06.3-4.23-1.2-4.67-3.24-.44-2.04.91-4.3,2.91-4.89Z"/><path class="cls-4" d="m68.94,86.17c.34-.84.95-1.59,1.77-1.98-.93-1.68-.78-3.9.38-5.43.57-.75,1.5-1.36,2.41-1.14.75.18,1.26.87,1.6,1.56.9,1.78,1.1,3.91.56,5.83,1.38-.21,2.77.75,3.32,2.04.55,1.28.39,2.79-.14,4.08-.52,1.3-1.38,2.43-2.22,3.54,2.17.03,4.2,1.76,4.58,3.9.37,2.14-.95,4.46-2.98,5.22.54,2.77,1.92,5.39,4.03,7.26l-4.1,1.14c-2.24-3.21-3.74-6.92-4.37-10.79-.96-.61-2.03-1.2-2.55-2.21-.52-1.01-.32-2.48.7-2.98-2.04-1.88-3.28-4.59-3.38-7.36-.03-.91.06-1.83.39-2.67Z"/><path class="cls-6" d="m58.38,128.02l4.15,15.74c1.62,6.14,7.15,10.44,13.5,10.5l62.12.62c6.16.06,11.66-3.89,13.56-9.75l6.05-18.67-99.38,1.57Z"/><path class="cls-3" d="m150.89,118.04c-1.42-.96-3.3-1.2-4.92-.62.06-1.54-.69-3.1-1.94-4.01-1.25-.91-2.87-1.31-4.32-.78-.83-5.33-4.89-10.02-10.05-11.59s-10.95.02-14.62,3.97c-.71-5.24-4.24-10.02-9.04-12.24-4.8-2.22-10.73-1.81-15.18,1.04-4.45,2.86-7.3,8.07-7.28,13.37-1.84.04-3.65,1.13-4.33,2.84-4.35-1.92-9.67-1.47-13.63,1.17-3.96,2.64-6.43,7.37-6.33,12.13l94.03-.94c-.06-1.71-.98-3.38-2.4-4.34Z"/><path class="cls-8" d="m134.2,113.98c-1.02-.26-2.06.09-2.72.81-.86-2.53-2.48-5.22-5.48-4.98-1.42.11-2.65,1.04-3.39,2.22-.8,1.27-1,2.79-.96,4.27-1.37-.17-2.61.75-2.79,2.27-.08.7,1.01.69,1.09,0,.11-.97,1.12-1.5,2-1.09.34.16.85-.02.82-.47-.16-2.32.41-6.02,3.43-6.12,2.89-.1,4.04,3.27,4.62,5.51.13.5.96.55,1.05,0,.17-.98,1.04-1.62,2.03-1.37,1.04.26,1.58,1.32,1.42,2.34-.1.69.95.99,1.05.29.24-1.6-.53-3.25-2.19-3.68Z"/><path class="cls-8" d="m75.7,111.27c-2.17.31-3.3,2.2-3.6,4.19-.61-.27-1.31-.27-1.91.11-.95.6-1.2,1.89-.67,2.84.34.61,1.29.06.94-.55-.59-1.05.89-2.1,1.63-1.1.31.41,1.02.31,1.02-.28,0-1.72.7-3.72,2.59-4.11,1.91-.4,3.54,1.2,3.41,3.09-.05.7,1.04.7,1.09,0,.18-2.5-2.03-4.55-4.5-4.19Z"/><path class="cls-8" d="m97.24,101.08c-.53-.13-1.07-.01-1.51.27-.1-.52-.26-1.03-.57-1.47-.52-.77-1.34-1.21-2.27-1.21-2.05.01-3.28,1.77-4.18,3.38-.34.62.6,1.17.94.55.66-1.18,1.48-2.63,2.97-2.83,1.76-.23,2.08,1.65,2.17,2.97.04.58.93.78,1.07.15.11-.47.57-.86,1.08-.76.49.1.79.66.68,1.13-.16.68.89.98,1.05.29.24-1.04-.36-2.22-1.44-2.48Z"/><path class="cls-2" d="m157.3,120.86l-99.46.85c-1.68.01-2.93,1.55-2.61,3.19l1.48,7.68c.24,1.26,1.34,2.17,2.62,2.18l96.2.75c1.3.01,2.41-.91,2.66-2.18l1.78-9.29c.32-1.67-.97-3.21-2.66-3.19Z"/><path class="cls-7" d="m73.32,124.58c-2.37.08-4.87.19-6.84,1.5-1.24.82-2.23,2.36-1.72,3.76.3.82,1.05,1.4,1.87,1.7.82.3,1.7.35,2.57.4,8.44.48,16.91.81,25.33.08,1.31-.11,2.65-.26,3.84-.82,1.19-.56,2.22-1.62,2.41-2.92.26-1.83-1.26-3.54-3.01-4.15-1.66-.57-3.42-.37-5.14-.22-1.93.16-3.87.18-5.81.24-4.5.14-8.99.29-13.49.43Z"/><path class="cls-10" d="m94.55,95.01c1-1.06,2.06-2.26,2.12-3.72.02-.47-.12-1.01-.54-1.2-.3-.14-.64-.07-.95.04-.69.23-1.34.6-1.81,1.15s-.72,1.31-.59,2.02c-.49-.34-1.21-.21-1.64.2-.43.41-.61,1.03-.61,1.63,0,.6.17,1.18.34,1.75-.8-.26-1.74.06-2.27.72-.53.66-.64,1.6-.35,2.39.29.79.96,1.37,1.75,1.66-.8,2.7-.98,5.57-.52,8.35l1.47-.66c-.47-1.78-.33-3.68.13-5.46.86-.18,1.69-.65,2.14-1.4.46-.75.49-1.77-.09-2.43.84-.24,1.68-.58,2.32-1.17s1.06-1.48.92-2.34c-.15-.86-.97-1.62-1.84-1.52Z"/><path class="cls-5" d="m88.22,102.34c.94-.59,1.55-1.67,1.57-2.78.03-1.11-.53-2.21-1.44-2.85-.3-.21-.64-.37-1.01-.38-.36,0-.75.16-.92.48.02-.81.04-1.63-.16-2.42-.2-.78-.66-1.54-1.38-1.92-.72-.38-1.71-.27-2.21.37-.38.49-.41,1.19-.2,1.78.21.59.62,1.08,1.05,1.52-.56.05-1.06.42-1.35.9-.29.48-.38,1.07-.33,1.63.13,1.66,1.5,3.14,3.15,3.4-.24.37-.45.77-.44,1.21.01.48.34.93.79,1.1.45.17,1.02.14,1.35-.2,1.11,1.64,1.73,3.61,1.75,5.59l1.78.34c.2-2.74-.55-5.47-2.01-7.79Z"/><path class="cls-9" d="m97.13,115.72c-1.32-.05-2.69.55-3.59,1.51-2.76-.61-5.76.1-7.95,1.86,0,0-.4-1.1-.65-2.63-.05-.34-.1-.7-.13-1.07-.27-3.02.36-6.94,5.2-7.73,3.53-.59,5.34.88,6.26,2.7.15.33.3.68.4,1.02.69,2.12.46,4.34.46,4.34Z"/><path class="cls-10" d="m119.98,84.95c1-1.06,2.06-2.26,2.12-3.72.02-.47-.12-1.01-.54-1.2-.3-.14-.64-.07-.95.04-.69.23-1.34.6-1.81,1.15-.46.56-.72,1.31-.59,2.02-.49-.34-1.21-.21-1.64.2-.43.41-.61,1.03-.61,1.63,0,.6.17,1.18.34,1.75-.8-.26-1.74.06-2.27.72-.53.66-.64,1.6-.35,2.39.29.79.96,1.37,1.75,1.66-.8,2.7-.98,5.57-.52,8.35l1.47-.66c-.47-1.78-.33-3.68.13-5.46.86-.18,1.69-.65,2.14-1.4.46-.75.49-1.77-.09-2.43.84-.24,1.68-.58,2.32-1.17.64-.59,1.06-1.48.92-2.35-.15-.86-.97-1.62-1.84-1.52Z"/><path class="cls-5" d="m113.65,92.28c.94-.59,1.55-1.67,1.57-2.78.03-1.11-.53-2.21-1.44-2.85-.3-.21-.64-.37-1.01-.38-.36,0-.75.16-.92.48.02-.81.04-1.63-.16-2.42s-.66-1.54-1.38-1.92c-.72-.38-1.71-.27-2.21.37-.38.49-.41,1.19-.2,1.78.21.59.62,1.08,1.05,1.52-.56.05-1.06.42-1.35.9-.29.48-.38,1.07-.33,1.63.13,1.66,1.5,3.14,3.15,3.4-.24.37-.45.77-.44,1.21.01.48.34.93.79,1.1.45.17,1.02.14,1.35-.21,1.11,1.64,1.73,3.61,1.75,5.59l1.78.34c.2-2.74-.55-5.47-2.01-7.79Z"/><path class="cls-9" d="m119.38,108.29c-2.05-1.07-4.64-1-6.63.17-.45-.59-1.13-1.02-1.87-1.15-.74-.13-1.53.03-2.16.44,0,0-.32-1.24-.33-2.84,0-.34.01-.71.04-1.09.26-2.76,1.7-5.97,6.91-6.02,3.48-.02,4.9,1.48,5.33,3.36.08.35.12.72.13,1.09.12,2.85-1.43,6.04-1.43,6.04Z"/><path class="cls-1" d="m96.67,111.38c-1.51.49-3.05.85-4.63,1.08-.3.03-.59-.08-.68-.38-.07-.26.09-.63.38-.68,1.53-.22,3.04-.57,4.52-1.04.15.33.3.68.4,1.02Z"/><path class="cls-1" d="m88.96,115.48c0,.32-.26.5-.55.55-1.16.14-2.31.3-3.47.44-.05-.34-.1-.7-.13-1.07,1.2-.15,2.4-.31,3.6-.46.3-.04.55.27.55.55Z"/><path class="cls-1" d="m112.17,104.96l-3.77-.04c0-.34.01-.71.04-1.09l3.73.04c.71.01.71,1.1,0,1.09Z"/><path class="cls-1" d="m120.81,102.26c-1.53-.07-3.06-.12-4.59-.19-.7-.03-.7-1.13,0-1.09,1.49.05,2.98.12,4.46.19.08.35.12.72.13,1.09Z"/></g></g></svg>