<svg id="Layer_1" data-name="Layer 1" xmlns="http://www.w3.org/2000/svg" viewBox="0 0 226.1 233.8"><defs><style>.cls-1,.cls-2{fill:#231f20;}.cls-1,.cls-3{stroke:#231f20;stroke-miterlimit:10;}.cls-1{stroke-width:12px;}.cls-3{fill:none;stroke-width:15px;}</style></defs><path class="cls-1" d="M350.63,404.53" transform="translate(-296.52 -180.93)"/><path class="cls-2" d="M492.08,408.34l24.35-33.46a1,1,0,0,0-.76-1.5H467a1,1,0,0,0-.76,1.5l24.36,33.46A.94.94,0,0,0,492.08,408.34Z" transform="translate(-296.52 -180.93)"/><path class="cls-2" d="M491.32,414.73a7,7,0,0,1-5.61-2.85l-24.36-33.47a6.95,6.95,0,0,1,5.61-11h48.71a6.94,6.94,0,0,1,5.61,11l-24.35,33.47A7,7,0,0,1,491.32,414.73Zm.76-6.39h0Zm-15.18-29,14.42,19.81,14.41-19.81Z" transform="translate(-296.52 -180.93)"/><path class="cls-2" d="M491.51,382.93a7.5,7.5,0,0,1-7.5-7.5v-187a7.5,7.5,0,0,1,15,0v187A7.5,7.5,0,0,1,491.51,382.93Z" transform="translate(-296.52 -180.93)"/><path class="cls-2" d="M491,195.93H304a7.5,7.5,0,0,1,0-15H491a7.5,7.5,0,0,1,0,15Z" transform="translate(-296.52 -180.93)"/><path class="cls-1" d="M545.69,370.83" transform="translate(-296.52 -180.93)"/><path class="cls-3" d="M317.31,195.36" transform="translate(-296.52 -180.93)"/><path class="cls-3" d="M324.8,383.73" transform="translate(-296.52 -180.93)"/></svg>