<svg id="Layer_1" data-name="Layer 1" xmlns="http://www.w3.org/2000/svg" viewBox="0 0 226.1 233.8"><defs><style>.cls-1{fill:#231f20;}</style></defs><path class="cls-1" d="M222,279.66l-24.36,33.46a.94.94,0,0,0,.76,1.5h48.71a.94.94,0,0,0,.76-1.5l-24.36-33.46A.93.93,0,0,0,222,279.66Z" transform="translate(-191.46 -273.27)"/><path class="cls-1" d="M247.12,320.62H198.41a6.94,6.94,0,0,1-5.61-11l24.35-33.47a7,7,0,0,1,5.61-2.86h0a7,7,0,0,1,5.61,2.86l24.35,33.46a6.94,6.94,0,0,1-5.61,11Zm-38.77-12h28.83l-14.41-19.81Zm18.51-25.43ZM222,279.66h0Z" transform="translate(-191.46 -273.27)"/><path class="cls-1" d="M222.57,507.07a7.5,7.5,0,0,1-7.5-7.5v-187a7.5,7.5,0,0,1,15,0v187A7.49,7.49,0,0,1,222.57,507.07Z" transform="translate(-191.46 -273.27)"/><path class="cls-1" d="M410.07,507.07h-187a7.5,7.5,0,0,1,0-15h187a7.5,7.5,0,0,1,0,15Z" transform="translate(-191.46 -273.27)"/></svg>